<svg width="17" height="12" viewBox="0 0 17 12" fill="none" xmlns="http://www.w3.org/2000/svg">
<path d="M8.66637 6.70505L3.19689 11.521C2.81886 11.8539 2.20756 11.8539 1.83354 11.521L0.924643 10.7207C0.546603 10.3879 0.546603 9.84957 0.924643 9.52024L4.80154 6.10661L0.924643 2.69299C0.546603 2.36012 0.546603 1.82188 0.924643 1.49256L1.82952 0.685196C2.20756 0.352331 2.81886 0.352331 3.19287 0.685196L8.6624 5.50108C9.04446 5.83395 9.04446 6.37219 8.66637 6.70505ZM16.388 5.50108L10.9185 0.685196C10.5405 0.352331 9.92922 0.352331 9.55515 0.685196L8.64628 1.48548C8.26823 1.81834 8.26823 2.35659 8.64628 2.68591L12.5232 6.09952L8.64628 9.51316C8.26823 9.84604 8.26823 10.3843 8.64628 10.7136L9.55515 11.5139C9.93328 11.8467 10.5445 11.8467 10.9185 11.5139L16.388 6.69797C16.7661 6.37219 16.7661 5.83395 16.388 5.50108Z" fill="white"/>
</svg>
