<svg width="153" height="165" viewBox="0 0 153 165" fill="none" xmlns="http://www.w3.org/2000/svg">
<g filter="url(#filter0_d)">
<path d="M76.489 0.294922C74.027 0.294922 71.578 0.906222 69.372 2.12892L11.36 34.329C6.94699 36.787 4.16199 41.372 4.16199 46.342V110.743C4.16199 115.726 6.94699 120.311 11.36 122.769L69.372 154.956C73.785 157.415 79.193 157.415 83.606 154.956L141.618 122.769C146.044 120.311 148.816 115.713 148.816 110.743V46.342C148.816 41.372 146.031 36.787 141.618 34.329L83.606 2.12892C81.399 0.906222 78.951 0.294922 76.489 0.294922ZM76.489 7.09912C77.78 7.09912 79.085 7.41802 80.242 8.05592L138.255 40.256C140.555 41.545 141.927 43.857 141.927 46.342V75.14H135.039V68.336H128.151V75.14H121.263V81.945H128.151V88.749H135.039V81.945H141.927V110.743C141.927 113.228 140.555 115.54 138.241 116.829L80.242 149.029C77.928 150.305 75.049 150.305 72.735 149.029L14.736 116.829C12.422 115.54 11.05 113.241 11.05 110.743V46.342C11.05 43.857 12.422 41.545 14.736 40.256L72.735 8.05592C73.892 7.41802 75.197 7.09912 76.489 7.09912ZM76.489 34.316C51.828 34.316 31.715 54.183 31.715 78.543C31.715 102.902 51.828 122.769 76.489 122.769C90.575 122.769 103.652 116.284 112.101 105.294L114.455 102.224L93.602 90.29L91.718 92.31C87.83 96.51 82.314 98.955 76.489 98.955C65.067 98.955 55.824 89.825 55.824 78.543C55.824 67.26 65.067 58.13 76.489 58.13C82.314 58.13 87.83 60.575 91.718 64.775L93.602 66.795L114.455 54.861L112.101 51.791C103.652 40.801 90.575 34.316 76.489 34.316ZM76.489 41.12C87.077 41.12 96.763 45.598 103.854 53.067L94.409 58.462C89.431 54.157 83.242 51.326 76.489 51.326C61.326 51.326 48.936 63.565 48.936 78.543C48.936 93.52 61.326 105.759 76.489 105.759C83.242 105.759 89.431 102.928 94.409 98.623L103.854 104.018C96.763 111.487 87.077 115.965 76.489 115.965C55.568 115.965 38.603 99.207 38.603 78.543C38.603 57.878 55.568 41.12 76.489 41.12ZM104.042 68.336V75.14H97.154V81.945H104.042V88.749H110.93V81.945H117.818V75.14H110.93V68.336H104.042Z" fill="white"/>
</g>
<defs>
<filter id="filter0_d" x="0.161987" y="0.294922" width="152.654" height="164.505" filterUnits="userSpaceOnUse" color-interpolation-filters="sRGB">
<feFlood flood-opacity="0" result="BackgroundImageFix"/>
<feColorMatrix in="SourceAlpha" type="matrix" values="0 0 0 0 0 0 0 0 0 0 0 0 0 0 0 0 0 0 127 0"/>
<feOffset dy="4"/>
<feGaussianBlur stdDeviation="2"/>
<feColorMatrix type="matrix" values="0 0 0 0 0 0 0 0 0 0 0 0 0 0 0 0 0 0 0.25 0"/>
<feBlend mode="normal" in2="BackgroundImageFix" result="effect1_dropShadow"/>
<feBlend mode="normal" in="SourceGraphic" in2="effect1_dropShadow" result="shape"/>
</filter>
</defs>
</svg>
