<svg width="45" height="35" viewBox="0 0 45 35" fill="none" xmlns="http://www.w3.org/2000/svg">
<path d="M42.1467 0H2.85328C1.28004 0 0 1.28004 0 2.85328V31.8117C0 33.385 1.28004 34.665 2.85328 34.665H42.1467C43.72 34.665 45 33.385 45 31.8117V2.85328C45 1.28004 43.72 0 42.1467 0ZM38.4844 1.61481L22.5 13.2652L6.5156 1.61481H38.4844ZM5.05978 33.0502H2.85328C2.17046 33.0502 1.61481 32.4946 1.61481 31.8117V6.71528L5.05978 9.22623V33.0502V33.0502ZM38.3253 33.0502H6.67468V10.4033L22.0245 21.5915C22.1661 21.6947 22.333 21.7464 22.5 21.7464C22.667 21.7464 22.834 21.6947 22.9755 21.5915L38.3253 10.4033V33.0502ZM43.3852 31.8117C43.3852 32.4946 42.8295 33.0502 42.1467 33.0502H39.9402V9.22623L43.3852 6.71528V31.8117V31.8117ZM43.3852 4.71709L22.5 19.9398L1.61481 4.71709V2.85328C1.61481 2.17046 2.17046 1.61481 2.85328 1.61481H3.77402L22.0245 14.9169C22.1662 15.0202 22.333 15.0718 22.5 15.0718C22.667 15.0718 22.8338 15.0202 22.9755 14.9169L41.2259 1.61481H42.1466C42.8295 1.61481 43.3851 2.17046 43.3851 2.85328V4.71709H43.3852Z" fill="#00C2FF"/>
</svg>
