<svg width="518" height="523" viewBox="0 0 518 523" fill="none" xmlns="http://www.w3.org/2000/svg">
<path fill-rule="evenodd" clip-rule="evenodd" d="M143.846 130.165C144.117 130.114 144.389 130.062 144.661 130.011L144.662 130.011C144.389 130.062 144.117 130.114 143.846 130.165Z" fill="url(#paint0_linear)"/>
<path d="M410.104 513.245C441.611 506.173 471.123 495.73 498.151 483.524C504.93 480.468 511.548 477.301 518 474.049V0.0999756L516.037 0.537282L516.033 0.538089C510.295 1.81645 504.334 3.14446 498.151 4.45746C423.582 20.291 360.5 48.6571 304.61 73.7889C274.797 87.1951 247.031 99.6809 220.659 108.853C181.96 122.957 162.719 126.596 144.663 130.011L144.662 130.011L144.661 130.011L143.846 130.165C142.668 130.388 141.494 130.611 140.318 130.836C133.28 132.174 126.206 133.615 117.989 135.755C106.12 138.873 91.87 143.426 71.9444 151.299C-25.9238 189.978 -4.46858 300.072 23.663 367.251C26.4769 373.957 29.4499 380.377 32.5821 386.511C36.2816 393.782 40.2073 400.673 44.3591 407.183C46.5942 410.682 48.8944 414.07 51.2598 417.35C53.1306 419.933 55.0245 422.447 56.9413 424.89C59.2108 427.771 61.5302 430.561 63.8994 433.261C72.8105 443.432 82.7463 452.691 93.5549 460.897C95.2283 462.174 96.919 463.422 98.6441 464.648C103.429 468.059 108.355 471.271 113.423 474.284C118.296 477.187 123.293 479.92 128.415 482.485C140.479 488.476 152.971 493.595 165.793 497.802C173.299 500.288 181.009 502.558 188.922 504.614C218.025 512.211 249.808 517.091 283.92 520.796C284.018 520.83 284.122 520.83 284.214 520.83C306.594 523.24 329.153 523.618 351.604 521.96C371.3 520.504 390.855 517.591 410.104 513.245Z" fill="url(#paint1_linear)"/>
<g opacity="0.8">
<path d="M518 464.817V474.063C487.5 489.563 457.2 500.563 435 506.817C353.36 529.817 299.86 526.317 201 507.817C165.5 498.563 131.86 488.317 98.6499 464.885L518 464.817Z" fill="url(#paint2_linear)" style="mix-blend-mode:multiply"/>
</g>
<path d="M91.7694 165.92L101.162 157.473V140.732L100.762 140.833V157.336L91.3973 165.773V229.446L119.249 260.625V286.147H119.649V260.498L91.7694 229.32V165.92Z" fill="#AAD6E3"/>
<path d="M136.989 131.597H136.708V175.691L124.635 187.925V218.01H125.026V188.093L137.099 175.853V131.592L136.989 131.597Z" fill="#AAD6E3"/>
<path d="M157.873 127.632V164.829H158.704V127.437L157.873 127.632Z" fill="#AAD6E3"/>
<path d="M352.732 251.247H352.313V205.011L368.512 183.711V46.0046H368.932V183.944L352.732 205.244V251.247Z" fill="#AAD6E3"/>
<path d="M186.472 120.624V177.071H186.88V120.59L186.472 120.624Z" fill="#AAD6E3"/>
<path d="M182.671 120.584V209.769L170.951 221.285V250.938H171.36V221.449L183.085 209.938V120.595L182.671 120.584Z" fill="#AAD6E3"/>
<path d="M218.103 109.987L217.7 110.296V140.179L228.932 151.366V218.009H229.334V151.187L218.103 140.01V109.987Z" fill="#AAD6E3"/>
<path d="M409.648 218.009H409.218V114.075L397.184 96.6588V34.3715H397.613V96.3959L409.648 113.821V218.009Z" fill="#AAD6E3"/>
<path d="M265.237 120.584H264.829V172.016H265.237V120.584Z" fill="#AAD6E3"/>
<path d="M311.597 189.758H311.177V125.535L294.978 106.351V78.4114H295.397V106.148L311.597 125.332V189.758Z" fill="#AAD6E3"/>
<path d="M278.872 96.9071L278.463 83.3969V141.833H278.872V96.9071Z" fill="#AAD6E3"/>
<path d="M341.061 181.44L340.605 181.439L340.691 106.736L355.215 86.4186L355.256 51.4149L355.71 52.6618L355.671 86.6894L341.147 107.006L341.061 181.44Z" fill="#AAD6E3"/>
<path d="M423.503 210.339V249.012L409.063 263.195V302.777H409.477V263.341L423.917 249.159V211.638C423.767 211.209 423.618 210.774 423.503 210.339Z" fill="#AAD6E3"/>
<path d="M311.12 191.921C312.315 191.921 313.283 190.97 313.283 189.797C313.283 188.624 312.315 187.673 311.12 187.673C309.926 187.673 308.958 188.624 308.958 189.797C308.958 190.97 309.926 191.921 311.12 191.921Z" fill="#AAD6E3"/>
<path d="M229.446 221.381C230.64 221.381 231.608 220.431 231.608 219.258C231.608 218.085 230.64 217.134 229.446 217.134C228.252 217.134 227.283 218.085 227.283 219.258C227.283 220.431 228.252 221.381 229.446 221.381Z" fill="#AAD6E3"/>
<path d="M160.376 165.346C160.376 164.926 160.249 164.515 160.012 164.166C159.774 163.817 159.436 163.544 159.041 163.384C158.646 163.223 158.211 163.181 157.792 163.263C157.373 163.345 156.987 163.547 156.685 163.844C156.383 164.141 156.177 164.52 156.093 164.931C156.01 165.343 156.053 165.77 156.216 166.159C156.38 166.547 156.657 166.878 157.013 167.112C157.368 167.345 157.786 167.47 158.214 167.47C158.787 167.47 159.337 167.246 159.743 166.848C160.148 166.449 160.376 165.909 160.376 165.346V165.346Z" fill="#AAD6E3"/>
<path d="M278.67 143.73C279.864 143.73 280.832 142.78 280.832 141.607C280.832 140.434 279.864 139.483 278.67 139.483C277.476 139.483 276.508 140.434 276.508 141.607C276.508 142.78 277.476 143.73 278.67 143.73Z" fill="#AAD6E3"/>
<path d="M264.961 123.03C266.155 123.03 267.123 122.079 267.123 120.906C267.123 119.733 266.155 118.782 264.961 118.782C263.767 118.782 262.799 119.733 262.799 120.906C262.799 122.079 263.767 123.03 264.961 123.03Z" fill="#AAD6E3"/>
<path d="M139.379 223.634C142.697 215.766 138.894 206.746 130.883 203.487C122.873 200.228 113.69 203.964 110.372 211.832C107.054 219.7 110.858 228.72 118.868 231.979C126.878 235.238 136.062 231.501 139.379 223.634Z" fill="#19FF00"/>
<path d="M113.793 221.432C113.276 221.432 112.804 221.312 112.377 221.072C111.951 220.827 111.612 220.488 111.361 220.056C111.116 219.619 110.993 219.128 110.993 218.584C110.993 218.04 111.116 217.552 111.361 217.12C111.612 216.683 111.951 216.344 112.377 216.104C112.804 215.859 113.276 215.736 113.793 215.736C114.316 215.736 114.791 215.859 115.217 216.104C115.644 216.344 115.98 216.68 116.225 217.112C116.471 217.544 116.593 218.035 116.593 218.584C116.593 219.134 116.471 219.624 116.225 220.056C115.98 220.488 115.644 220.827 115.217 221.072C114.791 221.312 114.316 221.432 113.793 221.432ZM113.793 220.8C114.183 220.8 114.532 220.71 114.841 220.528C115.156 220.347 115.401 220.088 115.577 219.752C115.759 219.416 115.849 219.027 115.849 218.584C115.849 218.136 115.759 217.747 115.577 217.416C115.401 217.08 115.159 216.822 114.849 216.64C114.54 216.459 114.188 216.368 113.793 216.368C113.399 216.368 113.047 216.459 112.737 216.64C112.428 216.822 112.183 217.08 112.001 217.416C111.825 217.747 111.737 218.136 111.737 218.584C111.737 219.027 111.825 219.416 112.001 219.752C112.183 220.088 112.428 220.347 112.737 220.528C113.052 220.71 113.404 220.8 113.793 220.8ZM120.346 218.504C120.549 218.536 120.733 218.619 120.898 218.752C121.069 218.886 121.202 219.051 121.298 219.248C121.4 219.446 121.45 219.656 121.45 219.88C121.45 220.163 121.378 220.419 121.234 220.648C121.09 220.872 120.88 221.051 120.602 221.184C120.33 221.312 120.008 221.376 119.634 221.376H117.554V215.8H119.554C119.933 215.8 120.256 215.864 120.522 215.992C120.789 216.115 120.989 216.283 121.122 216.496C121.256 216.71 121.322 216.95 121.322 217.216C121.322 217.547 121.232 217.822 121.05 218.04C120.874 218.254 120.64 218.408 120.346 218.504ZM118.282 218.208H119.506C119.848 218.208 120.112 218.128 120.298 217.968C120.485 217.808 120.578 217.587 120.578 217.304C120.578 217.022 120.485 216.8 120.298 216.64C120.112 216.48 119.842 216.4 119.49 216.4H118.282V218.208ZM119.57 220.776C119.933 220.776 120.216 220.691 120.418 220.52C120.621 220.35 120.722 220.112 120.722 219.808C120.722 219.499 120.616 219.256 120.402 219.08C120.189 218.899 119.904 218.808 119.546 218.808H118.282V220.776H119.57ZM128.117 215.84V221.376H127.389V217.248L125.549 221.376H125.037L123.189 217.24V221.376H122.461V215.84H123.245L125.293 220.416L127.341 215.84H128.117ZM130.079 216.392V218.256H132.111V218.856H130.079V220.776H132.351V221.376H129.351V215.792H132.351V216.392H130.079ZM137.181 217.432C137.181 217.896 137.021 218.283 136.701 218.592C136.386 218.896 135.903 219.048 135.253 219.048H134.181V221.376H133.453V215.8H135.253C135.882 215.8 136.359 215.952 136.685 216.256C137.015 216.56 137.181 216.952 137.181 217.432ZM135.253 218.448C135.658 218.448 135.957 218.36 136.149 218.184C136.341 218.008 136.437 217.758 136.437 217.432C136.437 216.744 136.042 216.4 135.253 216.4H134.181V218.448H135.253Z" fill="black"/>
<path d="M171.153 266.363C179.823 266.363 186.851 259.46 186.851 250.944C186.851 242.428 179.823 235.524 171.153 235.524C162.482 235.524 155.454 242.428 155.454 250.944C155.454 259.46 162.482 266.363 171.153 266.363Z" fill="#FF00D6"/>
<path d="M165.946 255.669C165.301 255.669 164.713 255.52 164.181 255.22C163.649 254.915 163.227 254.493 162.915 253.954C162.609 253.409 162.456 252.797 162.456 252.119C162.456 251.441 162.609 250.833 162.915 250.295C163.227 249.75 163.649 249.327 164.181 249.028C164.713 248.722 165.301 248.57 165.946 248.57C166.598 248.57 167.189 248.722 167.721 249.028C168.253 249.327 168.672 249.746 168.977 250.285C169.283 250.823 169.436 251.435 169.436 252.119C169.436 252.804 169.283 253.416 168.977 253.954C168.672 254.493 168.253 254.915 167.721 255.22C167.189 255.52 166.598 255.669 165.946 255.669ZM165.946 254.881C166.431 254.881 166.867 254.768 167.252 254.542C167.645 254.316 167.95 253.994 168.17 253.575C168.396 253.156 168.509 252.671 168.509 252.119C168.509 251.561 168.396 251.076 168.17 250.664C167.95 250.245 167.648 249.922 167.262 249.696C166.877 249.47 166.438 249.357 165.946 249.357C165.454 249.357 165.016 249.47 164.63 249.696C164.244 249.922 163.939 250.245 163.713 250.664C163.493 251.076 163.384 251.561 163.384 252.119C163.384 252.671 163.493 253.156 163.713 253.575C163.939 253.994 164.244 254.316 164.63 254.542C165.022 254.768 165.461 254.881 165.946 254.881ZM174.114 252.02C174.367 252.06 174.596 252.163 174.802 252.329C175.015 252.495 175.181 252.701 175.301 252.947C175.427 253.193 175.49 253.456 175.49 253.735C175.49 254.087 175.4 254.406 175.221 254.692C175.041 254.971 174.779 255.194 174.433 255.36C174.094 255.52 173.692 255.599 173.227 255.599H170.634V248.649H173.127C173.599 248.649 174.001 248.729 174.333 248.889C174.666 249.042 174.915 249.251 175.081 249.517C175.247 249.783 175.33 250.082 175.33 250.414C175.33 250.826 175.217 251.169 174.991 251.441C174.772 251.707 174.48 251.9 174.114 252.02ZM171.541 251.651H173.067C173.492 251.651 173.822 251.551 174.054 251.352C174.287 251.152 174.403 250.876 174.403 250.524C174.403 250.172 174.287 249.896 174.054 249.696C173.822 249.497 173.486 249.397 173.047 249.397H171.541V251.651ZM173.147 254.852C173.599 254.852 173.951 254.745 174.204 254.532C174.456 254.32 174.583 254.024 174.583 253.645C174.583 253.259 174.45 252.957 174.184 252.738C173.918 252.512 173.562 252.399 173.117 252.399H171.541V254.852H173.147ZM177.657 248.649V255.599H176.749V248.649H177.657Z" fill="#333333"/>
<path d="M265.036 187.436C273.706 187.436 280.735 180.532 280.735 172.016C280.735 163.5 273.706 156.597 265.036 156.597C256.366 156.597 249.337 163.5 249.337 172.016C249.337 180.532 256.366 187.436 265.036 187.436Z" fill="#FFF500"/>
<path d="M263.268 169.613V174.748C263.268 175.32 263.092 175.778 262.739 176.124C262.387 176.463 261.922 176.633 261.343 176.633C260.758 176.633 260.29 176.46 259.937 176.114C259.585 175.762 259.409 175.283 259.409 174.678H260.316C260.323 175.017 260.409 175.293 260.575 175.506C260.748 175.719 261.004 175.825 261.343 175.825C261.682 175.825 261.935 175.725 262.101 175.526C262.267 175.32 262.35 175.06 262.35 174.748V169.613H263.268ZM267.259 176.633C266.8 176.633 266.388 176.553 266.023 176.393C265.664 176.227 265.381 176.001 265.175 175.715C264.969 175.423 264.863 175.087 264.856 174.708H265.823C265.856 175.034 265.989 175.31 266.222 175.536C266.461 175.755 266.807 175.865 267.259 175.865C267.691 175.865 268.03 175.758 268.276 175.546C268.529 175.326 268.655 175.047 268.655 174.708C268.655 174.442 268.582 174.226 268.436 174.06C268.289 173.894 268.107 173.767 267.887 173.681C267.668 173.595 267.372 173.502 267 173.402C266.541 173.282 266.172 173.163 265.893 173.043C265.62 172.923 265.384 172.737 265.185 172.484C264.992 172.225 264.896 171.88 264.896 171.447C264.896 171.069 264.992 170.733 265.185 170.44C265.378 170.148 265.647 169.922 265.993 169.762C266.345 169.603 266.747 169.523 267.199 169.523C267.851 169.523 268.382 169.686 268.795 170.012C269.213 170.337 269.449 170.769 269.503 171.308H268.505C268.472 171.042 268.333 170.809 268.087 170.61C267.841 170.404 267.515 170.301 267.109 170.301C266.73 170.301 266.421 170.4 266.182 170.6C265.943 170.793 265.823 171.065 265.823 171.418C265.823 171.67 265.893 171.876 266.032 172.036C266.179 172.195 266.355 172.318 266.561 172.405C266.774 172.484 267.07 172.578 267.448 172.684C267.907 172.81 268.276 172.937 268.555 173.063C268.834 173.182 269.074 173.372 269.273 173.631C269.473 173.884 269.572 174.229 269.572 174.668C269.572 175.007 269.483 175.326 269.303 175.625C269.124 175.925 268.858 176.167 268.505 176.353C268.153 176.539 267.738 176.633 267.259 176.633Z" fill="#333333"/>
<g style="mix-blend-mode:luminosity">
<path d="M122.499 316.898C131.057 315.534 136.868 307.613 135.479 299.208C134.09 290.802 126.026 285.093 117.468 286.458C108.91 287.822 103.098 295.743 104.487 304.149C105.876 312.555 113.94 318.263 122.499 316.898Z" fill="white"/>
</g>
<path d="M113.608 306.019C112.961 306.019 112.371 305.869 111.838 305.569C111.305 305.262 110.881 304.839 110.568 304.299C110.261 303.752 110.108 303.139 110.108 302.459C110.108 301.779 110.261 301.169 110.568 300.629C110.881 300.082 111.305 299.659 111.838 299.359C112.371 299.052 112.961 298.899 113.608 298.899C114.261 298.899 114.855 299.052 115.388 299.359C115.921 299.659 116.341 300.079 116.648 300.619C116.955 301.159 117.108 301.772 117.108 302.459C117.108 303.145 116.955 303.759 116.648 304.299C116.341 304.839 115.921 305.262 115.388 305.569C114.855 305.869 114.261 306.019 113.608 306.019ZM113.608 305.229C114.095 305.229 114.531 305.115 114.918 304.889C115.311 304.662 115.618 304.339 115.838 303.919C116.065 303.499 116.178 303.012 116.178 302.459C116.178 301.899 116.065 301.412 115.838 300.999C115.618 300.579 115.315 300.255 114.928 300.029C114.541 299.802 114.101 299.689 113.608 299.689C113.115 299.689 112.675 299.802 112.288 300.029C111.901 300.255 111.595 300.579 111.368 300.999C111.148 301.412 111.038 301.899 111.038 302.459C111.038 303.012 111.148 303.499 111.368 303.919C111.595 304.339 111.901 304.662 112.288 304.889C112.681 305.115 113.121 305.229 113.608 305.229ZM121.799 302.359C122.053 302.399 122.283 302.502 122.489 302.669C122.703 302.835 122.869 303.042 122.989 303.289C123.116 303.535 123.179 303.799 123.179 304.079C123.179 304.432 123.089 304.752 122.909 305.039C122.729 305.319 122.466 305.542 122.119 305.709C121.779 305.869 121.376 305.949 120.909 305.949H118.309V298.979H120.809C121.283 298.979 121.686 299.059 122.019 299.219C122.353 299.372 122.603 299.582 122.769 299.849C122.936 300.115 123.019 300.415 123.019 300.749C123.019 301.162 122.906 301.505 122.679 301.779C122.459 302.045 122.166 302.239 121.799 302.359ZM119.219 301.989H120.749C121.176 301.989 121.506 301.889 121.739 301.689C121.973 301.489 122.089 301.212 122.089 300.859C122.089 300.505 121.973 300.229 121.739 300.029C121.506 299.829 121.169 299.729 120.729 299.729H119.219V301.989ZM120.829 305.199C121.283 305.199 121.636 305.092 121.889 304.879C122.143 304.665 122.269 304.369 122.269 303.989C122.269 303.602 122.136 303.299 121.869 303.079C121.603 302.852 121.246 302.739 120.799 302.739H119.219V305.199H120.829ZM128.562 304.399H125.522L124.962 305.949H124.002L126.522 299.019H127.572L130.082 305.949H129.122L128.562 304.399ZM128.302 303.659L127.042 300.139L125.782 303.659H128.302Z" fill="black"/>
<path d="M340.299 195.202C348.969 195.202 355.998 188.298 355.998 179.783C355.998 171.267 348.969 164.363 340.299 164.363C331.628 164.363 324.6 171.267 324.6 179.783C324.6 188.298 331.628 195.202 340.299 195.202Z" fill="#00FFF0"/>
<path d="M336.033 175.576V182.477H335.126V177.331L332.832 182.477H332.194L329.891 177.321V182.477H328.983V175.576H329.961L332.513 181.28L335.066 175.576H336.033ZM337.233 179.724C337.233 179.166 337.346 178.677 337.572 178.259C337.798 177.833 338.107 177.504 338.499 177.272C338.898 177.039 339.34 176.923 339.826 176.923C340.304 176.923 340.72 177.026 341.072 177.232C341.424 177.438 341.687 177.697 341.86 178.009V177.012H342.777V182.477H341.86V181.459C341.68 181.779 341.411 182.044 341.052 182.257C340.7 182.463 340.288 182.566 339.816 182.566C339.33 182.566 338.892 182.447 338.499 182.207C338.107 181.968 337.798 181.632 337.572 181.2C337.346 180.768 337.233 180.276 337.233 179.724ZM341.86 179.734C341.86 179.322 341.777 178.963 341.61 178.658C341.444 178.352 341.218 178.119 340.932 177.96C340.653 177.793 340.344 177.71 340.005 177.71C339.666 177.71 339.357 177.79 339.078 177.95C338.799 178.109 338.576 178.342 338.41 178.648C338.243 178.953 338.16 179.312 338.16 179.724C338.16 180.143 338.243 180.509 338.41 180.821C338.576 181.127 338.799 181.363 339.078 181.529C339.357 181.689 339.666 181.769 340.005 181.769C340.344 181.769 340.653 181.689 340.932 181.529C341.218 181.363 341.444 181.127 341.61 180.821C341.777 180.509 341.86 180.147 341.86 179.734ZM345.417 177.76V180.981C345.417 181.247 345.474 181.436 345.587 181.549C345.7 181.656 345.896 181.709 346.175 181.709H346.843V182.477H346.026C345.52 182.477 345.141 182.36 344.889 182.128C344.636 181.895 344.51 181.513 344.51 180.981V177.76H343.802V177.012H344.51V175.636H345.417V177.012H346.843V177.76H345.417ZM350.655 176.913C351.067 176.913 351.439 177.002 351.772 177.182C352.104 177.355 352.363 177.617 352.549 177.97C352.742 178.322 352.838 178.751 352.838 179.256V182.477H351.941V179.385C351.941 178.84 351.805 178.425 351.532 178.139C351.26 177.847 350.887 177.7 350.415 177.7C349.937 177.7 349.555 177.85 349.269 178.149C348.99 178.448 348.85 178.884 348.85 179.455V182.477H347.943V175.098H348.85V177.79C349.029 177.511 349.275 177.295 349.588 177.142C349.907 176.989 350.263 176.913 350.655 176.913Z" fill="#333333"/>
<path d="M423.781 223.516C427.06 215.632 423.211 206.631 415.185 203.411C407.159 200.19 397.994 203.97 394.715 211.854C391.436 219.737 395.285 228.739 403.311 231.959C411.338 235.18 420.503 231.399 423.781 223.516Z" fill="#8F00FF"/>
<path d="M400.371 217.628L405.959 219.886V221.636L398.657 218.253V216.949L405.959 213.575V215.325L400.371 217.628ZM408.896 224.492H407.476L412.904 210.38H414.314L408.896 224.492ZM421.946 217.574L416.046 215.262V213.566L423.668 216.94V218.244L416.046 221.627V219.913L421.946 217.574Z" fill="black"/>
<path d="M351.811 266.363C360.481 266.363 367.51 259.46 367.51 250.944C367.51 242.428 360.481 235.524 351.811 235.524C343.141 235.524 336.112 242.428 336.112 250.944C336.112 259.46 343.141 266.363 351.811 266.363Z" fill="#FF0000"/>
<path d="M409.27 318.179C417.941 318.179 424.969 311.276 424.969 302.76C424.969 294.244 417.941 287.34 409.27 287.34C400.6 287.34 393.572 294.244 393.572 302.76C393.572 311.276 400.6 318.179 409.27 318.179Z" fill="#2400FF"/>
<path d="M411.542 300.275C411.542 300.106 411.542 299.925 411.542 299.75C411.541 299.274 411.472 298.8 411.335 298.343L412.698 297.569L411.427 295.412L410.064 296.186C409.389 295.497 408.53 295.01 407.585 294.779V293.232H405.05V294.762C404.406 294.921 403.799 295.199 403.261 295.581L402.053 294.587L400.42 296.502L401.628 297.49C401.335 298.077 401.161 298.714 401.116 299.366L399.563 299.637L400.041 302.105L401.588 301.834C401.866 302.431 402.256 302.971 402.738 303.427L401.956 304.76L404.152 306.008L404.94 304.669C405.405 304.803 405.887 304.872 406.372 304.873C406.55 304.873 406.729 304.873 406.907 304.873L407.447 306.319L409.834 305.466L409.293 304.02C409.844 303.652 410.32 303.187 410.697 302.647L412.169 303.172L413.037 300.828L411.542 300.275ZM406.366 303.099C405.696 303.099 405.042 302.904 404.485 302.538C403.928 302.173 403.493 301.653 403.237 301.045C402.981 300.437 402.914 299.769 403.044 299.123C403.175 298.478 403.498 297.885 403.971 297.42C404.445 296.955 405.049 296.638 405.706 296.509C406.363 296.381 407.044 296.447 407.663 296.699C408.281 296.951 408.81 297.377 409.183 297.924C409.555 298.471 409.753 299.114 409.753 299.772C409.747 300.651 409.388 301.491 408.753 302.11C408.119 302.729 407.261 303.076 406.366 303.076V303.099Z" fill="#333333"/>
<path d="M418.161 307.612C418.169 307.488 418.169 307.363 418.161 307.239C418.16 306.905 418.112 306.572 418.017 306.251L418.972 305.686L418.08 304.166L417.126 304.731C416.653 304.254 416.057 303.912 415.401 303.743V302.67H413.612V303.754C413.161 303.862 412.736 304.054 412.359 304.319L411.542 303.624L410.392 304.968L411.237 305.663C411.034 306.075 410.913 306.522 410.881 306.979L409.788 307.171L410.099 308.866L411.185 308.679C411.376 309.102 411.648 309.486 411.985 309.809L411.41 310.747L412.957 311.622L413.532 310.684C413.859 310.778 414.197 310.825 414.538 310.826C414.665 310.826 414.791 310.826 414.912 310.826L415.291 311.842L416.971 311.238L416.591 310.221C416.982 309.968 417.316 309.639 417.574 309.255L418.609 309.628L419.219 307.979L418.161 307.612ZM414.515 309.577C414.044 309.577 413.584 309.44 413.192 309.183C412.801 308.926 412.496 308.561 412.316 308.134C412.135 307.707 412.088 307.236 412.18 306.783C412.272 306.329 412.499 305.913 412.832 305.586C413.165 305.259 413.589 305.036 414.051 304.946C414.512 304.855 414.991 304.902 415.426 305.079C415.861 305.256 416.233 305.555 416.495 305.94C416.756 306.324 416.896 306.777 416.896 307.239C416.896 307.859 416.645 308.454 416.198 308.892C415.752 309.331 415.146 309.577 414.515 309.577Z" fill="#333333"/>
<path d="M188.036 195.202C196.706 195.202 203.735 188.298 203.735 179.783C203.735 171.267 196.706 164.363 188.036 164.363C179.366 164.363 172.337 171.267 172.337 179.783C172.337 188.298 179.366 195.202 188.036 195.202Z" fill="#FF5C00"/>
<path d="M189.635 172.88C189.241 172.08 188.623 171.406 187.855 170.936C187.086 170.465 186.197 170.219 185.292 170.225C184.387 170.231 183.501 170.488 182.739 170.968C181.977 171.448 181.368 172.13 180.984 172.935C180.601 173.741 180.457 174.637 180.571 175.519C180.684 176.401 181.05 177.234 181.625 177.921C182.201 178.607 182.963 179.119 183.823 179.398C184.683 179.676 185.605 179.71 186.484 179.494L188.249 183.07C188.137 183.292 188.079 183.536 188.079 183.784C188.079 184.032 188.137 184.277 188.249 184.499L191.533 191.152C191.722 191.536 192.058 191.83 192.468 191.969C192.878 192.109 193.327 192.083 193.718 191.898C194.108 191.712 194.408 191.382 194.55 190.979C194.692 190.576 194.666 190.135 194.477 189.751L191.199 183.098C191.088 182.876 190.926 182.682 190.727 182.532C190.528 182.381 190.296 182.277 190.049 182.228L188.289 178.653C189.154 177.988 189.759 177.052 190.004 176.001C190.249 174.95 190.119 173.848 189.635 172.88ZM182.453 176.269C182.18 175.722 182.075 175.109 182.152 174.504C182.228 173.9 182.482 173.33 182.883 172.865C183.284 172.4 183.814 172.06 184.408 171.886C185.003 171.712 185.636 171.712 186.23 171.886C186.825 172.06 187.355 172.401 187.755 172.866C188.156 173.331 188.41 173.9 188.486 174.505C188.562 175.11 188.458 175.723 188.185 176.27C187.912 176.817 187.483 177.274 186.949 177.585C186.858 177.601 186.77 177.628 186.685 177.664C186.605 177.707 186.529 177.758 186.461 177.817C185.72 178.102 184.898 178.104 184.156 177.823C183.414 177.541 182.806 176.997 182.453 176.298V176.269Z" fill="#A01C1C"/>
<path opacity="0.8" d="M494.16 485.444H123.981C121.727 485.444 119.565 484.564 117.971 482.999C116.377 481.433 115.482 479.31 115.482 477.096V477.096C115.48 475.998 115.698 474.911 116.124 473.895C116.55 472.88 117.175 471.958 117.965 471.18C118.754 470.403 119.692 469.786 120.724 469.365C121.757 468.944 122.863 468.726 123.981 468.726H494.16C496.415 468.727 498.577 469.608 500.17 471.174C501.764 472.741 502.659 474.865 502.659 477.079V477.079C502.662 478.177 502.444 479.264 502.017 480.279C501.591 481.294 500.966 482.216 500.176 482.993C499.387 483.77 498.449 484.386 497.417 484.807C496.384 485.228 495.278 485.444 494.16 485.444V485.444Z" fill="white"/>
<path d="M494.16 468.725H493.775C494.002 469.458 494.124 470.219 494.137 470.985C494.137 473.199 493.242 475.323 491.648 476.89C490.055 478.456 487.893 479.337 485.638 479.338H115.844C116.343 481.083 117.407 482.619 118.876 483.715C120.344 484.811 122.137 485.406 123.981 485.41H494.16C496.377 485.354 498.484 484.449 500.031 482.889C501.578 481.329 502.444 479.237 502.444 477.059C502.444 474.881 501.578 472.79 500.031 471.23C498.484 469.67 496.377 468.765 494.16 468.708V468.725Z" fill="#C7C7C7"/>
<path d="M495.201 486.534H380.443C380.297 486.534 380.153 486.506 380.018 486.451C379.884 486.396 379.761 486.316 379.658 486.215C379.555 486.114 379.474 485.994 379.418 485.861C379.362 485.729 379.333 485.587 379.333 485.444C379.333 485.301 379.362 485.159 379.418 485.027C379.474 484.895 379.555 484.774 379.658 484.673C379.761 484.572 379.884 484.492 380.018 484.437C380.153 484.382 380.297 484.354 380.443 484.354H495.201C495.346 484.354 495.491 484.382 495.625 484.437C495.76 484.492 495.882 484.572 495.985 484.673C496.088 484.774 496.17 484.895 496.226 485.027C496.282 485.159 496.31 485.301 496.31 485.444C496.31 485.587 496.282 485.729 496.226 485.861C496.17 485.994 496.088 486.114 495.985 486.215C495.882 486.316 495.76 486.396 495.625 486.451C495.491 486.506 495.346 486.534 495.201 486.534V486.534Z" fill="white"/>
<path d="M198.059 486.534H176.029C175.883 486.534 175.739 486.506 175.604 486.451C175.47 486.396 175.347 486.316 175.244 486.215C175.141 486.114 175.06 485.994 175.004 485.861C174.948 485.729 174.919 485.587 174.919 485.444C174.919 485.301 174.948 485.159 175.004 485.027C175.06 484.895 175.141 484.774 175.244 484.673C175.347 484.572 175.47 484.492 175.604 484.437C175.739 484.382 175.883 484.354 176.029 484.354H198.059C198.205 484.354 198.349 484.382 198.484 484.437C198.619 484.492 198.741 484.572 198.844 484.673C198.947 484.774 199.029 484.895 199.085 485.027C199.141 485.159 199.169 485.301 199.169 485.444C199.169 485.587 199.141 485.729 199.085 485.861C199.029 485.994 198.947 486.114 198.844 486.215C198.741 486.316 198.619 486.396 198.484 486.451C198.349 486.506 198.205 486.534 198.059 486.534V486.534Z" fill="white"/>
<path d="M321.322 486.534H206.174C206.028 486.534 205.883 486.506 205.749 486.451C205.614 486.396 205.492 486.316 205.389 486.215C205.286 486.114 205.204 485.994 205.148 485.861C205.092 485.729 205.064 485.587 205.064 485.444C205.064 485.301 205.092 485.159 205.148 485.027C205.204 484.895 205.286 484.774 205.389 484.673C205.492 484.572 205.614 484.492 205.749 484.437C205.883 484.382 206.028 484.354 206.174 484.354H263.748H321.322C321.468 484.354 321.612 484.382 321.747 484.437C321.881 484.492 322.004 484.572 322.107 484.673C322.21 484.774 322.292 484.895 322.347 485.027C322.403 485.159 322.432 485.301 322.432 485.444C322.432 485.587 322.403 485.729 322.347 485.861C322.292 485.994 322.21 486.114 322.107 486.215C322.004 486.316 321.881 486.396 321.747 486.451C321.612 486.506 321.468 486.534 321.322 486.534Z" fill="white"/>
<path d="M233.954 469.064L222.16 453.25C222.16 453.25 223.764 454.3 234.489 452.724C245.214 451.149 233.954 469.064 233.954 469.064Z" fill="#959392"/>
<path d="M218.508 451.459C223.197 457.337 228.169 462.985 233.425 468.404C234.34 469.347 235.794 467.918 234.88 466.975C229.624 461.575 224.652 455.927 219.963 450.03C219.147 449.008 217.703 450.443 218.508 451.459Z" fill="#0C30A1"/>
<path d="M335.434 447.946C358.867 454.413 385.418 458.548 408.69 449.313C416.861 446.071 420.335 441.123 418.828 432.205C415.953 414.978 408.644 397.971 398.995 376.384C391.95 360.625 387.258 344.833 374.049 332.746C362.447 322.196 347.717 315.563 332.007 313.813H286.135C270.425 315.563 255.694 322.196 244.093 332.746C230.866 344.833 226.191 360.625 219.147 376.384C209.497 397.971 202.212 414.978 199.313 432.205C197.812 441.123 201.28 446.071 209.451 449.313C232.724 458.548 259.274 454.396 282.707 447.946" fill="#14A2CF"/>
<path d="M296.888 323.726L286.135 313.813C270.425 315.563 255.694 322.196 244.093 332.746C230.866 344.833 226.191 360.625 219.147 376.384C209.497 397.971 202.212 414.978 199.313 432.205C197.812 441.123 201.28 446.071 209.451 449.313C232.724 458.548 259.274 454.396 282.707 447.946L282.759 445.901C275.508 448.161 268.187 450.234 260.585 450.849C255.638 451.234 250.662 450.978 245.783 450.087C241.792 449.375 237.974 448.048 233.989 447.359C224.754 445.772 202.907 445.032 204.443 431.131C204.886 427.144 207.669 424.02 210.4 421.258C211.936 419.711 213.54 418.214 214.949 416.548C216.568 414.562 217.931 412.388 219.009 410.075C223.552 400.756 224.811 390.307 230.234 381.303C232.718 377.18 235.984 373.582 238.739 369.64C241.723 365.381 242.925 361.394 244.248 356.468C244.823 354.345 245.852 352.159 247.813 351.114C250.527 349.662 254.076 350.984 256.088 353.277C258.101 355.57 258.963 358.603 259.843 361.512C261.114 365.748 262.529 369.984 264.835 373.786C267.601 378.304 272.356 382.433 276.244 386.065C281.161 390.657 288.055 393.311 294.531 394.927C305.75 397.751 317.446 398.141 329.034 397.954C332.344 397.994 335.651 397.702 338.902 397.084C343.039 396.136 346.887 394.236 350.128 391.539C353.37 388.842 355.912 385.427 357.545 381.575C361.467 372.08 359.373 361.19 361.892 351.244C363.272 345.813 365.992 340.799 369.811 336.643C370.222 336.26 370.551 335.799 370.777 335.288C371.185 334.113 370.391 332.87 369.489 332.006C367.027 329.657 363.617 328.572 360.288 327.708C354.799 326.272 349.212 325.223 343.571 324.568C341.581 324.342 339.546 324.144 337.723 323.308C336.291 322.647 335.072 321.614 333.697 320.812C330.092 318.654 325.739 318.157 321.541 317.711C315.508 317.061 309.183 316.446 303.432 318.485C299.574 319.863 295.957 322.438 291.862 322.337" fill="#00C2FF"/>
<path d="M274.841 415.435C273.995 415.198 273.144 414.983 272.287 414.808C264.237 413.181 255.939 415.277 247.744 415.988C246.318 416.113 244.714 416.141 243.661 415.186C240.826 412.639 250.412 402.902 251.798 400.32C255.448 393.538 257.467 386.023 257.698 378.355C257.629 377.537 257.814 376.718 258.227 376.005C258.716 375.344 259.872 375.113 260.349 375.779C260.498 376.034 260.588 376.317 260.614 376.609C261.442 382.026 262.253 387.815 261.66 393.272C261.183 397.688 259.826 400.281 263.65 404.246C266.14 406.827 269.493 408.409 272.793 409.866C278.44 412.359 284.162 414.665 289.959 416.785L289.872 419.123C284.68 419.191 279.855 416.864 274.841 415.435Z" fill="#2A6B12"/>
<path d="M244.334 333.226C252.123 341.506 257.001 352.023 258.25 363.229C258.388 364.505 260.447 364.517 260.303 363.229C259.032 351.492 253.94 340.471 245.783 331.803C244.886 330.848 243.437 332.277 244.334 333.226Z" fill="#0D8AB1"/>
<path d="M255.559 334.627C258.723 341.513 260.715 348.863 261.453 356.384C261.574 357.666 263.633 357.677 263.506 356.384C262.743 348.512 260.664 340.818 257.353 333.61C256.813 332.43 255.053 333.452 255.576 334.627H255.559Z" fill="#0D8AB1"/>
<path d="M226.375 422.976C235.476 418.376 245.431 415.634 255.64 414.916C257.606 414.78 257.624 411.747 255.64 411.888C244.888 412.636 234.402 415.518 224.817 420.361C223.051 421.253 224.61 423.868 226.375 422.976V422.976Z" fill="#0D8AB1"/>
<path d="M205.231 416.576C209.809 396.722 217.019 377.543 226.674 359.53C229.4 354.458 232.312 349.493 235.409 344.635C236.111 343.506 234.334 342.517 233.638 343.613C222.612 360.93 213.936 379.588 207.83 399.112C206.089 404.688 204.556 410.322 203.229 416.011C202.936 417.276 204.914 417.819 205.208 416.576H205.231Z" fill="#220E75"/>
<path d="M243.328 334.864C245.218 332.688 247.257 330.641 249.429 328.736C249.621 328.545 249.728 328.289 249.728 328.021C249.728 327.754 249.621 327.497 249.429 327.307C249.234 327.124 248.974 327.023 248.705 327.023C248.435 327.023 248.176 327.124 247.98 327.307C245.816 329.209 243.785 331.253 241.902 333.424C241.714 333.616 241.61 333.872 241.61 334.138C241.61 334.404 241.714 334.66 241.902 334.853C242.096 335.039 242.357 335.144 242.629 335.144C242.901 335.144 243.162 335.039 243.357 334.853L243.328 334.864Z" fill="#220E75"/>
<path d="M357.556 450.849C362.505 451.234 367.483 450.978 372.364 450.087C376.349 449.375 380.167 448.048 384.158 447.359C393.359 445.772 415.211 445.032 413.699 431.131C413.256 427.144 410.478 424.02 407.741 421.258C406.206 419.711 404.601 418.214 403.192 416.548C401.576 414.562 400.214 412.388 399.138 410.075C394.59 400.756 393.33 390.307 387.913 381.303C383.635 374.209 376.769 368.267 374.583 360.083C373.433 355.774 374.049 351.645 375.417 347.476C376.527 344.121 377.395 340.557 374.756 337.649C372.577 335.237 369.58 334.695 366.515 334.169C362.829 333.537 359.115 333.124 355.423 332.543C351.518 331.921 347.688 330.775 343.835 329.911C339.983 329.046 327.901 325.274 324.232 323.698L332.007 313.785C347.717 315.534 362.447 322.168 374.049 332.718C387.275 344.805 391.95 360.597 398.994 376.356C408.644 397.943 415.93 414.95 418.828 432.176C420.335 441.095 416.861 446.043 408.69 449.285C385.417 458.519 358.867 454.368 335.434 447.918L335.382 445.873C342.634 448.138 349.954 450.234 357.556 450.849Z" fill="#00C2FF"/>
<path d="M372.358 331.803C364.201 340.471 359.109 351.492 357.838 363.229C357.7 364.517 359.753 364.506 359.891 363.229C361.14 352.023 366.018 341.506 373.807 333.226C374.71 332.277 373.232 330.843 372.358 331.803V331.803Z" fill="#0D8AB1"/>
<path d="M360.805 333.61C357.494 340.818 355.415 348.512 354.652 356.383C354.526 357.677 356.584 357.666 356.705 356.383C357.438 348.864 359.424 341.514 362.582 334.627C363.123 333.452 361.352 332.424 360.805 333.61V333.61Z" fill="#0D8AB1"/>
<path d="M393.347 420.344C383.762 415.501 373.277 412.619 362.525 411.871C360.546 411.73 360.558 414.758 362.525 414.899C372.735 415.623 382.69 418.37 391.789 422.976C393.554 423.868 395.113 421.281 393.347 420.361V420.344Z" fill="#0D8AB1"/>
<path d="M414.895 416.04C410.287 396.123 403.055 376.881 393.382 358.801C390.622 353.642 387.664 348.589 384.509 343.641C383.807 342.546 382.03 343.557 382.732 344.664C393.72 361.915 402.358 380.508 408.425 399.965C410.128 405.444 411.623 410.981 412.911 416.576C413.204 417.841 415.211 417.305 414.895 416.011V416.04Z" fill="#0D8AB1"/>
<path d="M343.301 415.435C344.146 415.198 344.997 414.983 345.854 414.808C353.905 413.181 362.203 415.277 370.397 415.989C371.823 416.113 373.428 416.141 374.486 415.187C377.315 412.639 367.735 402.902 366.343 400.321C362.692 393.538 360.676 386.023 360.449 378.355C360.513 377.537 360.327 376.718 359.914 376.005C359.425 375.344 358.269 375.113 357.798 375.779C357.644 376.031 357.553 376.316 357.533 376.609C356.705 382.026 355.889 387.815 356.481 393.272C356.958 397.688 358.315 400.281 354.491 404.246C352.007 406.827 348.649 408.409 345.348 409.866C339.709 412.351 333.979 414.65 328.16 416.762L328.246 419.101C333.462 419.191 338.292 416.864 343.301 415.435Z" fill="#2A6B12"/>
<path d="M376.268 333.424C374.378 331.248 372.34 329.2 370.167 327.296C369.972 327.117 369.714 327.019 369.447 327.023C369.18 327.028 368.925 327.134 368.736 327.319C368.548 327.505 368.439 327.755 368.435 328.017C368.43 328.279 368.53 328.533 368.712 328.725C370.886 330.632 372.925 332.683 374.814 334.864C375.007 335.052 375.269 335.158 375.541 335.158C375.813 335.158 376.075 335.052 376.268 334.864C376.456 334.672 376.56 334.416 376.56 334.15C376.56 333.883 376.456 333.627 376.268 333.435V333.424Z" fill="#0D8AB1"/>
<path d="M286.635 324.183C290.24 329.634 296.715 332.3 303.185 333.277C315.836 335.197 334.013 330.549 336.739 316.231C337.055 314.576 337.09 312.774 336.256 311.3C334.842 308.821 331.512 308.148 328.625 308.239C321.195 308.476 314.312 311.899 307.118 313.734C299.504 315.672 295.537 313.13 288.642 311.831C281.747 310.532 283.782 318.705 285.605 322.399C285.911 323.014 286.254 323.61 286.635 324.183V324.183Z" fill="#FF9E87"/>
<path opacity="0.8" d="M286.635 322.229C290.24 327.013 296.715 329.346 303.185 330.21C315.836 331.905 334.013 327.815 336.739 315.254C337.055 313.797 337.09 312.215 336.256 310.922C334.842 308.747 331.512 308.16 328.625 308.239C321.195 308.448 314.312 311.453 307.118 313.057C299.504 314.751 295.537 312.526 288.642 311.39C281.747 310.255 283.782 317.423 285.605 320.665C285.914 321.207 286.258 321.73 286.635 322.229V322.229Z" fill="#F0755C"/>
<path d="M276.98 293.396C274.526 288.738 272.074 284.076 269.625 279.411L269.05 279.151C267.261 277.507 264.196 277.722 262.356 279.309C260.516 280.896 259.832 283.506 260.188 285.883C260.545 288.261 261.815 290.402 263.339 292.305C264.863 294.209 266.864 296.005 269.234 296.897C271.603 297.79 274.455 297.699 276.508 296.237C276.932 295.974 277.25 295.575 277.405 295.107C277.474 294.505 277.323 293.899 276.98 293.396V293.396Z" fill="#FF9E87"/>
<path d="M273.305 285.866C272.598 284.409 271.885 282.958 271.177 281.506L270.499 281.986C268.894 280.247 265.605 281.828 265.122 284.127C264.639 286.426 266.002 288.702 267.531 290.509C268.883 292.113 271.057 293.695 272.937 292.723C274.087 292.159 274.605 290.741 274.524 289.47C274.356 288.203 273.942 286.98 273.305 285.866V285.866Z" fill="#FA826A"/>
<path d="M357.941 276.92C357.66 274.536 356.308 272.181 354.111 271.125C351.915 270.068 348.896 270.639 347.602 272.678L347.119 273.079C345.969 278.207 344.834 283.334 343.715 288.459C343.512 289.038 343.53 289.671 343.766 290.238C344.038 290.642 344.445 290.94 344.916 291.08C347.286 291.972 350.092 291.334 352.116 289.865C354.14 288.397 355.566 286.211 356.596 283.929C357.625 281.647 358.229 279.309 357.941 276.92Z" fill="#FF9E87"/>
<path d="M352.72 276.485C351.645 274.384 348.045 273.695 346.969 275.79L346.193 275.496C345.888 277.078 345.589 278.665 345.285 280.247C344.966 281.486 344.892 282.775 345.066 284.042C345.319 285.29 346.216 286.505 347.458 286.782C349.528 287.233 351.213 285.155 352.093 283.263C353.076 281.128 353.795 278.586 352.72 276.485Z" fill="#FA826A"/>
<path d="M339.499 240.851C332.599 235.067 324.295 235.654 309.165 234.689C299.01 234.045 286.922 234.372 278.584 240.902C269.067 248.385 268.544 260.857 268.314 264.285C267.71 273.458 272.149 282.303 281.057 299.626C292.259 321.411 296.641 323.958 299.062 325.099C307.63 329.126 319.528 328.646 326.699 322.693C329.643 320.247 330.724 317.784 333.404 312.04C345.192 286.889 345.532 289.809 347.142 284.082C350.138 273.458 352.266 251.599 339.499 240.851Z" fill="#FF9E87"/>
<path d="M339.499 240.851C332.898 235.203 324.433 235.666 309.165 234.689C299.01 234.045 286.922 234.372 278.584 240.902C269.383 248.137 268.664 260.105 268.314 264.285C267.388 275.333 273.069 285.432 284.415 305.624C286.658 309.577 294.893 323.975 304.007 326.471C309.386 328.011 315.137 327.729 320.333 325.669C323.783 324.33 335.02 317.536 341.863 295.632C345.411 284.257 354.865 254.045 339.499 240.851Z" fill="#FF9E87"/>
<path d="M336.423 240.924L336.354 240.851C330.879 235.553 313.294 235.152 306.02 234.689C296.462 234.079 285.191 234.338 276.951 239.834C280.626 239.478 284.335 239.072 287.969 239.891C291.077 240.697 293.952 242.203 296.365 244.291C299.085 246.674 298.55 250.662 297.452 253.689C296.821 255.439 295.94 257.091 294.835 258.597C293.84 259.953 292.27 261.111 291.684 262.709C291.525 263.078 291.47 263.482 291.522 263.879C291.575 264.276 291.734 264.652 291.983 264.968C292.61 265.663 293.708 265.72 294.622 265.612C299.286 265.093 303.035 261.868 307.607 261.02C311.155 260.36 314.347 262.031 317.642 263.014C321.489 264.144 324.807 263.172 328.706 263.076C334.318 262.941 338.717 266.861 339.868 272.113C341.897 281.337 340.644 290.99 337.36 299.789C334.036 308.691 329.085 317.169 321.96 323.67C323.594 322.84 325.135 321.846 326.561 320.705C328.136 319.49 329.593 318.134 330.914 316.655C333.527 313.827 335.736 310.663 337.481 307.251C341.207 300.083 343.151 292.085 343.973 284.093C345.262 271.871 345.986 250.424 336.423 240.924Z" fill="#FA826A"/>
<path d="M346.716 286.002C345.135 285.398 344.83 280.117 344.824 278.727C344.824 274.678 345.399 270.408 343.398 266.663C342.012 264.053 339.678 262.071 337.694 259.885C333.369 255.084 332.305 249.34 333.093 243.037C333.622 238.676 334.324 226.007 339.591 228.594C357.09 237.208 356.406 261.145 351.794 276.988C351.299 278.592 349.58 287.087 346.716 286.002Z" fill="#28282B"/>
<g style="mix-blend-mode:multiply" opacity="0.45">
<path d="M338.344 260.574C338.55 260.102 338.72 259.615 338.85 259.117C339.198 257.782 339.478 256.43 339.689 255.067C340.028 253.169 340.264 250.594 341.892 249.255C343.519 247.917 346.118 248.69 347.067 250.385C347.642 251.481 348.74 254.192 350.431 252.695C352.668 250.701 352.053 245.657 351.495 243.133C350.759 239.719 349.132 236.552 346.774 233.943C344.742 231.726 342.303 229.904 339.586 228.572C334.318 225.985 333.617 238.654 333.088 243.014C332.323 249.317 333.387 255.062 337.688 259.862C337.935 260.105 338.125 260.337 338.344 260.574Z" fill="#CC1F1F"/>
</g>
<path d="M271.137 281.139C271.085 279.049 268.561 267.826 271.269 266.2C272.96 265.189 274.513 264.641 275.692 262.941C276.623 261.585 276.916 259.919 277.187 258.309C277.762 254.79 278.205 248.752 273.736 247.38C267.894 245.589 265.111 251.639 264.725 255.4C264.15 261.325 264.863 276.067 270.758 286.07C271.102 284.449 271.23 282.792 271.137 281.139V281.139Z" fill="#28282B"/>
<g style="mix-blend-mode:multiply" opacity="0.45">
<path d="M273.731 247.38C267.888 245.589 265.105 251.639 264.72 255.4C264.478 258.568 264.507 261.749 264.806 264.912C265.956 266.866 267.486 268.866 269.47 269.538C269.658 269.593 269.85 269.636 270.045 269.668C270.131 267.973 270.464 266.68 271.264 266.2C271.873 265.832 272.466 265.527 273.029 265.205C273.04 265.021 273.093 264.841 273.185 264.68C273.277 264.519 273.405 264.38 273.56 264.274C273.715 264.169 273.891 264.099 274.077 264.071C274.263 264.042 274.454 264.056 274.634 264.11C275.033 263.765 275.387 263.372 275.686 262.941C276.617 261.585 276.911 259.919 277.181 258.309C277.779 254.79 278.205 248.752 273.731 247.38Z" fill="#CC1F1F"/>
</g>
<path d="M297.141 250.47C295.416 251.865 293.846 253.503 292.126 254.937C290.179 256.488 288.125 257.905 285.979 259.179C294.162 259.264 302.324 258.332 310.269 256.406C311.794 256.11 313.26 255.574 314.611 254.819C315.522 254.252 316.233 253.423 316.648 252.445C317.062 251.467 317.159 250.387 316.926 249.353C316.693 248.318 316.14 247.38 315.344 246.665C314.548 245.95 313.547 245.494 312.478 245.358C307.262 244.686 301.086 247.318 297.141 250.47Z" fill="#C61A1A"/>
<path d="M293.139 211.384C286.182 213.305 279.818 216.89 274.618 221.818C269.417 226.747 265.542 232.865 263.339 239.625C260.924 247.323 261.85 257.501 269.234 261.009C271.378 261.925 273.687 262.411 276.025 262.438C284.395 262.852 292.719 260.995 300.085 257.072C303.357 255.327 306.319 252.802 309.936 251.723C312.811 250.865 315.411 252.254 311.489 253.807C306.969 255.598 301.235 256.942 298.05 260.851C297.57 261.365 297.268 262.016 297.187 262.709C297.026 267.386 304.542 261.015 305.566 260.517C310.275 258.326 315.6 259.625 320.615 259.653C325.285 259.752 329.834 258.191 333.427 255.259C340.328 249.532 342.731 238.315 340.218 229.995C337.544 221.133 328.464 214.954 319.856 212.226C311.425 209.565 301.707 209.102 293.139 211.384Z" fill="#28282B"/>
<path d="M510.898 308.554V311.717C510.898 311.986 511.006 312.243 511.199 312.432C511.392 312.622 511.654 312.728 511.927 312.728C512.2 312.728 512.462 312.622 512.655 312.432C512.848 312.243 512.956 311.986 512.956 311.717V308.554C512.956 308.286 512.848 308.029 512.655 307.84C512.462 307.65 512.2 307.543 511.927 307.543C511.654 307.543 511.392 307.65 511.199 307.84C511.006 308.029 510.898 308.286 510.898 308.554V308.554Z" fill="white"/>
<g style="mix-blend-mode:screen">
<path d="M249.024 377.356L369.268 374.894L453.68 190.588H154.549C163.244 207.774 171.937 224.961 180.628 242.15L249.024 377.356Z" fill="url(#paint3_linear)" style="mix-blend-mode:color-dodge"/>
</g>
<path d="M378.817 469.986H238.193C236.721 469.986 235.31 469.411 234.269 468.389C233.229 467.367 232.644 465.981 232.644 464.535V382.874C232.644 379.998 233.807 377.24 235.878 375.206C237.948 373.172 240.757 372.03 243.685 372.03H373.325C376.254 372.03 379.063 373.172 381.134 375.205C383.206 377.239 384.37 379.997 384.372 382.874V464.524C384.372 465.241 384.229 465.951 383.95 466.614C383.672 467.276 383.263 467.878 382.747 468.386C382.231 468.893 381.618 469.295 380.944 469.57C380.269 469.844 379.547 469.986 378.817 469.986Z" fill="#8B8B8B"/>
<path d="M379.259 372.04H374.526C374.846 373.75 374.99 375.487 374.957 377.225C375.043 380.634 374.888 384.044 374.491 387.432C373.508 394.695 371.162 401.676 368.114 408.33C357.924 430.6 340.58 449.273 321.241 464.286C318.757 466.218 316.235 468.112 313.674 469.968H381.8C382.481 469.968 383.134 469.703 383.616 469.231C384.098 468.758 384.369 468.118 384.371 467.449V377.056C384.371 376.397 384.239 375.744 383.982 375.135C383.725 374.526 383.348 373.973 382.873 373.507C382.398 373.042 381.835 372.672 381.214 372.42C380.594 372.169 379.93 372.04 379.259 372.04Z" fill="#535353"/>
<path opacity="0.7" d="M238.003 381.004C238.005 379.675 238.543 378.4 239.501 377.46C240.458 376.519 241.756 375.99 243.11 375.989H384.251C384.004 374.869 383.374 373.866 382.466 373.147C381.558 372.427 380.426 372.035 379.259 372.035H237.75C237.08 372.034 236.415 372.164 235.795 372.415C235.175 372.667 234.612 373.037 234.138 373.503C233.664 373.968 233.287 374.522 233.031 375.13C232.775 375.739 232.643 376.392 232.644 377.051V467.461C232.644 468.129 232.914 468.77 233.395 469.242C233.876 469.714 234.528 469.98 235.209 469.98H238.003V381.004Z" fill="#FFFFFC"/>
<path d="M252.183 373.707H351.903C352.162 373.688 352.404 373.573 352.581 373.386C352.758 373.199 352.856 372.954 352.856 372.698C352.856 372.443 352.758 372.198 352.581 372.011C352.404 371.824 352.162 371.709 351.903 371.69H252.183C251.924 371.709 251.682 371.824 251.506 372.011C251.329 372.198 251.231 372.443 251.231 372.698C251.231 372.954 251.329 373.199 251.506 373.386C251.682 373.573 251.924 373.688 252.183 373.707Z" fill="#5C5C5C"/>
<path d="M231.585 394.023V460.107C231.604 460.361 231.721 460.599 231.911 460.772C232.102 460.946 232.352 461.042 232.611 461.042C232.871 461.042 233.121 460.946 233.312 460.772C233.502 460.599 233.619 460.361 233.638 460.107V394.023C233.619 393.769 233.502 393.531 233.312 393.358C233.121 393.184 232.871 393.088 232.611 393.088C232.352 393.088 232.102 393.184 231.911 393.358C231.721 393.531 231.604 393.769 231.585 394.023Z" fill="#474747"/>
<path d="M380.633 448.528V463.535C380.652 463.789 380.769 464.027 380.959 464.201C381.15 464.374 381.4 464.47 381.659 464.47C381.919 464.47 382.169 464.374 382.36 464.201C382.55 464.027 382.667 463.789 382.686 463.535V448.528C382.667 448.273 382.55 448.036 382.36 447.862C382.169 447.689 381.919 447.592 381.659 447.592C381.4 447.592 381.15 447.689 380.959 447.862C380.769 448.036 380.652 448.273 380.633 448.528Z" fill="white"/>
<path d="M380.897 442.473V445.105C380.897 445.373 381.006 445.63 381.199 445.82C381.392 446.009 381.654 446.116 381.927 446.116C382.2 446.116 382.462 446.009 382.655 445.82C382.848 445.63 382.956 445.373 382.956 445.105V442.473C382.956 442.205 382.848 441.948 382.655 441.758C382.462 441.569 382.2 441.462 381.927 441.462C381.654 441.462 381.392 441.569 381.199 441.758C381.006 441.948 380.897 442.205 380.897 442.473V442.473Z" fill="white"/>
<path d="M357.636 471.499C359.937 471.499 362.289 471.499 364.6 471.731C364.848 471.731 364.273 471.674 364.497 471.731C364.76 471.796 365.038 471.758 365.274 471.627C365.509 471.495 365.684 471.28 365.762 471.025C365.833 470.767 365.797 470.492 365.662 470.261C365.527 470.029 365.305 469.859 365.043 469.788C364.749 469.731 364.451 469.697 364.152 469.686C363.14 469.613 362.122 469.584 361.11 469.556L357.659 469.488C357.386 469.488 357.125 469.595 356.932 469.784C356.739 469.974 356.63 470.231 356.63 470.499C356.63 470.767 356.739 471.025 356.932 471.214C357.125 471.404 357.386 471.51 357.659 471.51L357.636 471.499Z" fill="white"/>
<path d="M237.537 471.16C267.296 471.623 297.066 471.42 326.831 471.561C335.468 471.606 344.107 471.68 352.749 471.781C354.071 471.781 354.071 469.776 352.749 469.759C321.822 469.364 290.896 469.522 259.97 469.358C252.494 469.317 245.018 469.245 237.542 469.144C236.22 469.144 236.214 471.138 237.542 471.16H237.537Z" fill="white"/>
<path d="M243.201 428.517V400.078C243.182 399.824 243.065 399.586 242.875 399.412C242.684 399.239 242.434 399.143 242.175 399.143C241.915 399.143 241.665 399.239 241.475 399.412C241.284 399.586 241.168 399.824 241.148 400.078V428.517C241.168 428.771 241.284 429.009 241.475 429.182C241.665 429.356 241.915 429.452 242.175 429.452C242.434 429.452 242.684 429.356 242.875 429.182C243.065 429.009 243.182 428.771 243.201 428.517V428.517Z" fill="white"/>
<path d="M310.441 411.223C305.246 411.223 301.02 415.6 301.02 420.98C301.02 426.36 305.246 430.737 310.441 430.737C315.636 430.737 319.862 426.36 319.862 420.98C319.862 415.6 315.636 411.223 310.441 411.223ZM314.055 422.379L314.907 427.53L310.441 425.097L305.975 427.53L306.827 422.379L303.215 418.73L308.207 417.979L310.441 413.292L312.675 417.979L317.667 418.73L314.055 422.379Z" fill="#D5D8E2"/>
<path d="M310.441 411.223C305.246 411.223 301.02 415.6 301.02 420.98C301.02 426.36 305.246 430.737 310.441 430.737C315.636 430.737 319.862 426.36 319.862 420.98C319.862 415.6 315.636 411.223 310.441 411.223ZM314.055 422.379L314.907 427.53L310.441 425.097L305.975 427.53L306.827 422.379L303.215 418.73L308.207 417.979L310.441 413.292L312.675 417.979L317.667 418.73L314.055 422.379Z" fill="url(#paint4_linear)"/>
<path d="M311.285 419.96L310.441 418.19L309.598 419.96L307.713 420.244L309.077 421.622L308.756 423.566L310.441 422.647L312.127 423.566L311.806 421.622L313.17 420.244L311.285 419.96Z" fill="#D5D8E2"/>
<path d="M311.285 419.96L310.441 418.19L309.598 419.96L307.713 420.244L309.077 421.622L308.756 423.566L310.441 422.647L312.127 423.566L311.806 421.622L313.17 420.244L311.285 419.96Z" fill="url(#paint5_linear)"/>
<path d="M328.216 421.162L325.669 416.937L326.044 411.833L321.588 409.618L319.449 405.005L314.521 405.393L310.441 402.478L306.361 405.393L301.433 405.005L299.295 409.618L294.838 411.833L295.214 416.937L292.485 421.162L295.214 425.388L294.838 430.491L299.295 432.706L301.433 437.32L306.361 436.932L310.441 439.481L314.521 436.932L319.449 437.32L321.588 432.706L326.044 430.491L325.669 425.388L328.216 421.162ZM310.441 432.904C304.092 432.904 298.926 427.555 298.926 420.98C298.926 414.404 304.092 409.055 310.441 409.055C316.79 409.055 321.956 414.404 321.956 420.98C321.956 427.555 316.79 432.904 310.441 432.904Z" fill="#D5D8E2"/>
<path d="M328.216 421.162L325.669 416.937L326.044 411.833L321.588 409.618L319.449 405.005L314.521 405.393L310.441 402.478L306.361 405.393L301.433 405.005L299.295 409.618L294.838 411.833L295.214 416.937L292.485 421.162L295.214 425.388L294.838 430.491L299.295 432.706L301.433 437.32L306.361 436.932L310.441 439.481L314.521 436.932L319.449 437.32L321.588 432.706L326.044 430.491L325.669 425.388L328.216 421.162ZM310.441 432.904C304.092 432.904 298.926 427.555 298.926 420.98C298.926 414.404 304.092 409.055 310.441 409.055C316.79 409.055 321.956 414.404 321.956 420.98C321.956 427.555 316.79 432.904 310.441 432.904Z" fill="url(#paint6_linear)"/>
<path d="M154.626 460.095C152.78 460.095 150.273 460.095 150.025 456.808V450.843C150.025 449.03 150.992 447.257 154.626 447.556V444.608H152.579C150.901 444.608 149.292 445.262 148.106 446.427C146.919 447.593 146.253 449.173 146.253 450.821V456.785C146.253 458.433 146.919 460.013 148.106 461.178C149.292 462.343 150.901 462.998 152.579 462.998H154.626V460.095Z" fill="#4F4B4B"/>
<path d="M186.001 459.768V437.802C186.001 437.748 185.99 437.694 185.969 437.644C185.948 437.594 185.917 437.549 185.878 437.51C185.839 437.472 185.793 437.442 185.742 437.421C185.691 437.4 185.636 437.39 185.581 437.39H154.994C154.939 437.39 154.884 437.4 154.833 437.421C154.782 437.442 154.736 437.472 154.697 437.51C154.658 437.549 154.627 437.594 154.606 437.644C154.585 437.694 154.574 437.748 154.574 437.802V461.457C154.574 463.192 154.922 464.911 155.599 466.514C156.275 468.118 157.266 469.575 158.515 470.802C159.765 472.029 161.248 473.003 162.881 473.667C164.514 474.331 166.263 474.673 168.03 474.673H172.545C174.312 474.673 176.062 474.331 177.694 473.667C179.327 473.003 180.81 472.029 182.06 470.802C183.309 469.575 184.3 468.118 184.977 466.514C185.653 464.911 186.001 463.192 186.001 461.457V459.762" fill="#1F1F1F"/>
<path d="M161.918 437.39V461.869C161.918 465.094 163.159 468.2 165.392 470.565C167.625 472.93 170.685 474.379 173.959 474.622C173.631 474.622 173.304 474.673 172.964 474.673H167.611C164.153 474.673 160.837 473.324 158.392 470.923C155.948 468.522 154.574 465.265 154.574 461.869V437.39H161.918Z" fill="#4F4B4B"/>
<path d="M152.579 464.071H154.626C154.893 464.066 155.148 463.959 155.337 463.774C155.527 463.589 155.636 463.34 155.644 463.077V460.123C155.644 459.852 155.534 459.592 155.339 459.4C155.144 459.209 154.879 459.101 154.603 459.101C152.303 459.101 151.21 458.869 151.066 456.768V450.871C151.04 450.563 151.081 450.252 151.187 449.96C151.292 449.668 151.458 449.401 151.676 449.177C152.211 448.691 153.194 448.488 154.511 448.612C154.777 448.619 155.036 448.525 155.235 448.35C155.433 448.176 155.556 447.933 155.579 447.672C155.602 447.411 155.523 447.152 155.357 446.947C155.192 446.741 154.953 446.606 154.689 446.568C152.74 446.409 151.239 446.782 150.267 447.697C149.835 448.111 149.497 448.609 149.276 449.16C149.055 449.711 148.956 450.302 148.985 450.894V456.859C149.226 460.423 151.722 461.044 153.585 461.151V462.072H152.584C151.177 462.07 149.828 461.521 148.833 460.543C147.838 459.566 147.278 458.241 147.277 456.859V453.357C147.287 453.216 147.268 453.074 147.221 452.94C147.173 452.807 147.098 452.685 147 452.581C146.902 452.477 146.783 452.395 146.651 452.338C146.519 452.282 146.377 452.253 146.233 452.253C146.089 452.253 145.946 452.282 145.815 452.338C145.683 452.395 145.564 452.477 145.466 452.581C145.368 452.685 145.293 452.807 145.245 452.94C145.198 453.074 145.178 453.216 145.189 453.357V456.859C145.206 458.774 145.991 460.606 147.375 461.957C148.758 463.307 150.628 464.067 152.579 464.071Z" fill="#1F1F1F"/>
<defs>
<linearGradient id="paint0_linear" x1="311.057" y1="50.4961" x2="395.808" y2="434.42" gradientUnits="userSpaceOnUse">
<stop offset="0.463542" stop-color="#220E75"/>
<stop offset="0.895833" stop-color="#50D5FF"/>
<stop offset="0.927083" stop-color="#50D5FF"/>
</linearGradient>
<linearGradient id="paint1_linear" x1="311.057" y1="50.4961" x2="395.808" y2="434.42" gradientUnits="userSpaceOnUse">
<stop offset="0.463542" stop-color="#220E75"/>
<stop offset="0.895833" stop-color="#50D5FF"/>
<stop offset="0.927083" stop-color="#50D5FF"/>
</linearGradient>
<linearGradient id="paint2_linear" x1="526.869" y1="597.707" x2="-5.12395" y2="248.139" gradientUnits="userSpaceOnUse">
<stop stop-color="#220E75"/>
<stop offset="0.651042" stop-color="#220E75"/>
</linearGradient>
<linearGradient id="paint3_linear" x1="333.203" y1="179.107" x2="333.203" y2="364.802" gradientUnits="userSpaceOnUse">
<stop offset="0.12" stop-color="#595A12"/>
<stop offset="0.64" stop-color="#12215A"/>
</linearGradient>
<linearGradient id="paint4_linear" x1="310.441" y1="411.223" x2="310.441" y2="430.737" gradientUnits="userSpaceOnUse">
<stop stop-color="#BCC3CC"/>
<stop offset="0.947917" stop-color="white" stop-opacity="0"/>
</linearGradient>
<linearGradient id="paint5_linear" x1="310.441" y1="418.19" x2="310.441" y2="423.566" gradientUnits="userSpaceOnUse">
<stop stop-color="#BCC3CC"/>
<stop offset="0.947917" stop-color="white" stop-opacity="0"/>
</linearGradient>
<linearGradient id="paint6_linear" x1="310.35" y1="402.478" x2="310.35" y2="439.481" gradientUnits="userSpaceOnUse">
<stop stop-color="#BCC3CC"/>
<stop offset="0.947917" stop-color="white" stop-opacity="0"/>
</linearGradient>
</defs>
</svg>
