<svg width="46" height="45" viewBox="0 0 46 45" fill="none" xmlns="http://www.w3.org/2000/svg">
<path d="M45.5543 13.1324C45.4473 10.7594 45.0548 9.12714 44.4926 7.71328C43.9126 6.21256 43.0202 4.86942 41.8511 3.7521C40.7088 2.61804 39.3257 1.73646 37.8087 1.17811C36.3545 0.628444 34.6946 0.244436 32.2674 0.139591C29.8222 0.02606 29.0459 0 22.8441 0C16.6423 0 15.866 0.0260553 13.4298 0.130901C11.0027 0.235746 9.33409 0.619773 7.88858 1.16944C6.35346 1.73647 4.97935 2.60873 3.83707 3.7521C2.67706 4.86942 1.77597 6.22187 1.20467 7.70522C0.642425 9.12714 0.249932 10.7501 0.142916 13.1237C0.0268426 15.5146 0 16.274 0 22.3383C0 28.4026 0.0268427 29.1619 0.133852 31.5442C0.240868 33.9178 0.633709 35.5494 1.19596 36.9633C1.77597 38.464 2.67706 39.8078 3.83707 40.9245C4.97935 42.0585 6.36253 42.9401 7.87951 43.4984C9.33409 44.0481 10.9936 44.4321 13.4211 44.537C15.857 44.6418 16.6336 44.6679 22.8354 44.6679C29.0372 44.6679 29.8135 44.6418 32.2496 44.537C34.6768 44.4321 36.3454 44.0481 37.7909 43.4984C40.8608 42.3377 43.2879 39.9647 44.4748 36.9633C45.0367 35.5407 45.4296 33.9178 45.5365 31.5442C45.6436 29.1619 45.6704 28.4026 45.6704 22.3383C45.6704 16.274 45.6614 15.5146 45.5543 13.1324ZM41.4408 31.3699C41.3425 33.5512 40.9678 34.7293 40.6555 35.5147C39.8879 37.4602 38.3085 39.005 36.3185 39.755C35.5154 40.0609 34.302 40.4269 32.0799 40.5231C29.6706 40.6279 28.9479 40.654 22.8532 40.654C16.7584 40.654 16.0267 40.6279 13.6261 40.5231C11.3952 40.4269 10.1905 40.0609 9.3874 39.755C8.39713 39.3977 7.49574 38.83 6.76409 38.0887C6.00557 37.364 5.42557 36.4918 5.05953 35.5234C4.74723 34.738 4.37248 33.5512 4.27457 31.3786C4.16722 29.0223 4.14072 28.3157 4.14072 22.3556C4.14072 16.3956 4.16722 15.6803 4.27457 13.3334C4.37248 11.1515 4.74723 9.97396 5.05953 9.18855C5.42557 8.21951 6.00557 7.33855 6.77311 6.62262C7.51347 5.88126 8.40584 5.31424 9.39648 4.95628C10.1996 4.65105 11.4133 4.2844 13.6352 4.18824C16.0445 4.08401 16.7674 4.05734 22.8619 4.05734C28.9657 4.05734 29.6884 4.08401 32.089 4.18824C34.3198 4.2844 35.5245 4.65105 36.3276 4.95628C37.3179 5.31424 38.2193 5.88126 38.951 6.62262C39.7095 7.34724 40.2895 8.21951 40.6555 9.18855C40.9678 9.97396 41.3425 11.1601 41.4408 13.3334C41.5478 15.689 41.5747 16.3956 41.5747 22.3556C41.5747 28.3157 41.5478 29.0136 41.4408 31.3699Z" fill="#50B5FF"/>
<path d="M22.844 10.8633C16.3657 10.8633 11.1096 16.0026 11.1096 22.338C11.1096 28.6734 16.3657 33.8126 22.844 33.8126C29.3226 33.8126 34.5783 28.6734 34.5783 22.338C34.5783 16.0026 29.3226 10.8633 22.844 10.8633ZM22.844 29.7814C18.6412 29.7814 15.2322 26.448 15.2322 22.338C15.2322 18.2279 18.6412 14.8946 22.844 14.8946C27.0471 14.8946 30.4558 18.2279 30.4558 22.338C30.4558 26.448 27.0471 29.7814 22.844 29.7814Z" fill="#50B5FF"/>
<path d="M37.7822 10.4108C37.7822 11.8898 36.5556 13.0896 35.0424 13.0896C33.5296 13.0896 32.303 11.8898 32.303 10.4108C32.303 8.93114 33.5296 7.73193 35.0424 7.73193C36.5556 7.73193 37.7822 8.93114 37.7822 10.4108Z" fill="#50B5FF"/>
</svg>
