<svg width="46" height="45" viewBox="0 0 46 45" fill="none" xmlns="http://www.w3.org/2000/svg">
<path d="M8.11719 36.8164H16.1452V18.3208H8.11719V36.8164ZM10.7932 20.9382H13.4692V34.199H10.7932V20.9382Z" fill="#50B5FF"/>
<path d="M29.533 18.3208C29.5305 18.3208 29.5278 18.3208 29.5253 18.3208C28.6002 18.3208 27.6991 18.4722 26.8493 18.7662V18.3208H18.8213V36.8164H26.8493V27.4814C26.8493 26.7599 27.4496 26.173 28.1873 26.173C28.925 26.173 29.5253 26.7599 29.5253 27.4814V36.8164H37.5533V26.5819C37.5533 22.3465 34.0403 18.3251 29.533 18.3208ZM34.8773 34.199H32.2013V27.4814C32.2013 25.3169 30.4006 23.5556 28.1873 23.5556C25.974 23.5556 24.1736 25.3169 24.1733 27.4808V34.199H21.4973V20.9382H24.1733V23.5569L26.3148 21.9842C27.2462 21.2999 28.3563 20.9382 29.5253 20.9382H29.5305C32.3787 20.9407 34.8773 23.5779 34.8773 26.5819V34.199Z" fill="#50B5FF"/>
<path d="M8.11719 15.7032H16.1452V7.85156H8.11719V15.7032ZM10.7932 10.469H13.4692V13.0864H10.7932V10.469Z" fill="#50B5FF"/>
<path d="M38.9804 0H6.68999C3.00109 0 0 2.93505 0 6.54322V38.1246C0 41.7328 3.00109 44.6679 6.68999 44.6679H38.9804C42.6693 44.6679 45.6704 41.7328 45.6704 38.1246V6.54322C45.6704 2.93505 42.6693 0 38.9804 0ZM42.9944 38.1246C42.9944 40.2892 41.1937 42.0505 38.9804 42.0505H6.68999C4.47672 42.0505 2.67598 40.2892 2.67598 38.1246V6.54322C2.67598 4.37869 4.47672 2.61741 6.68999 2.61741H38.9804C41.1937 2.61741 42.9944 4.37869 42.9944 6.54322V38.1246Z" fill="#50B5FF"/>
</svg>
