<svg width="94" height="38" viewBox="0 0 94 38" fill="none" xmlns="http://www.w3.org/2000/svg">
<path d="M68.7421 36.2309V27.7014L85.7946 19.3719L68.7421 11.1067V2.63141L93.2189 15.7579V23.0162L68.7421 36.2309Z" fill="#2400FF"/>
<path d="M68.7421 36.2309V27.7014L85.7946 19.3719L68.7421 11.1067V2.63141L93.2189 15.7579V23.0162L68.7421 36.2309Z" fill="url(#paint0_linear)"/>
<path d="M24.4768 36.2274L0 23.0432V15.741L24.4768 2.63141V11.2084L7.42096 19.3005L24.4768 27.6979V36.2274Z" fill="#2400FF"/>
<path d="M24.4768 36.2274L0 23.0432V15.741L24.4768 2.63141V11.2084L7.42096 19.3005L24.4768 27.6979V36.2274Z" fill="url(#paint1_linear)"/>
<path d="M46.5939 8.88684C41.2143 8.88684 36.838 13.3345 36.838 18.8021C36.838 24.2696 41.2143 28.7172 46.5939 28.7172C51.9736 28.7172 56.3497 24.2696 56.3497 18.8021C56.3497 13.3345 51.9737 8.88684 46.5939 8.88684ZM50.336 20.2233L51.2189 25.4585L46.5939 22.9861L41.969 25.4585L42.8519 20.2233L39.1108 16.5158L44.2809 15.752L46.5939 10.9891L48.9069 15.752L54.077 16.5158L50.336 20.2233Z" fill="#003BFF"/>
<path d="M46.5939 8.88684C41.2143 8.88684 36.838 13.3345 36.838 18.8021C36.838 24.2696 41.2143 28.7172 46.5939 28.7172C51.9736 28.7172 56.3497 24.2696 56.3497 18.8021C56.3497 13.3345 51.9737 8.88684 46.5939 8.88684ZM50.336 20.2233L51.2189 25.4585L46.5939 22.9861L41.969 25.4585L42.8519 20.2233L39.1108 16.5158L44.2809 15.752L46.5939 10.9891L48.9069 15.752L54.077 16.5158L50.336 20.2233Z" fill="url(#paint2_linear)"/>
<path d="M47.4673 17.766L46.594 15.9671L45.7207 17.766L43.7687 18.0543L45.1808 19.4552L44.8484 21.4304L46.594 20.4965L48.3397 21.4304L48.0073 19.4552L49.4194 18.0543L47.4673 17.766Z" fill="#003BFF"/>
<path d="M47.4673 17.766L46.594 15.9671L45.7207 17.766L43.7687 18.0543L45.1808 19.4552L44.8484 21.4304L46.594 20.4965L48.3397 21.4304L48.0073 19.4552L49.4194 18.0543L47.4673 17.766Z" fill="url(#paint3_linear)"/>
<path d="M65 18.9872L62.3625 14.6934L62.751 9.50667L58.1367 7.25592L55.9221 2.5673L50.8187 2.96214L46.594 0L42.3692 2.96214L37.2657 2.5673L35.0512 7.25592L30.4369 9.50667L30.8254 14.6934L28 18.9872L30.8254 23.2821L30.4369 28.4677L35.0512 30.7195L37.2658 35.4081L42.3693 35.0133L46.594 37.6042L50.8188 35.0133L55.9221 35.4081L58.1368 30.7195L62.7511 28.4677L62.3626 23.2821L65 18.9872ZM46.594 30.9207C40.0191 30.9207 34.6701 25.4843 34.6701 18.8021C34.6701 12.12 40.0191 6.68357 46.594 6.68357C53.1688 6.68357 58.5178 12.12 58.5178 18.8021C58.5178 25.4843 53.1688 30.9207 46.594 30.9207Z" fill="#003BFF"/>
<path d="M65 18.9872L62.3625 14.6934L62.751 9.50667L58.1367 7.25592L55.9221 2.5673L50.8187 2.96214L46.594 0L42.3692 2.96214L37.2657 2.5673L35.0512 7.25592L30.4369 9.50667L30.8254 14.6934L28 18.9872L30.8254 23.2821L30.4369 28.4677L35.0512 30.7195L37.2658 35.4081L42.3693 35.0133L46.594 37.6042L50.8188 35.0133L55.9221 35.4081L58.1368 30.7195L62.7511 28.4677L62.3626 23.2821L65 18.9872ZM46.594 30.9207C40.0191 30.9207 34.6701 25.4843 34.6701 18.8021C34.6701 12.12 40.0191 6.68357 46.594 6.68357C53.1688 6.68357 58.5178 12.12 58.5178 18.8021C58.5178 25.4843 53.1688 30.9207 46.594 30.9207Z" fill="url(#paint4_linear)"/>
<defs>
<linearGradient id="paint0_linear" x1="80.9805" y1="2.63141" x2="80.9805" y2="36.2309" gradientUnits="userSpaceOnUse">
<stop stop-color="#220E75"/>
<stop offset="1" stop-color="white" stop-opacity="0"/>
</linearGradient>
<linearGradient id="paint1_linear" x1="12.2384" y1="2.63141" x2="12.2384" y2="36.2274" gradientUnits="userSpaceOnUse">
<stop stop-color="#220E75"/>
<stop offset="1" stop-color="white" stop-opacity="0"/>
</linearGradient>
<linearGradient id="paint2_linear" x1="46.5939" y1="8.88684" x2="46.5939" y2="28.7172" gradientUnits="userSpaceOnUse">
<stop stop-color="#BCC3CC"/>
<stop offset="0.947917" stop-color="white" stop-opacity="0"/>
</linearGradient>
<linearGradient id="paint3_linear" x1="46.594" y1="15.9671" x2="46.594" y2="21.4304" gradientUnits="userSpaceOnUse">
<stop stop-color="#BCC3CC"/>
<stop offset="0.947917" stop-color="white" stop-opacity="0"/>
</linearGradient>
<linearGradient id="paint4_linear" x1="46.5" y1="0" x2="46.5" y2="37.6042" gradientUnits="userSpaceOnUse">
<stop stop-color="#220E75"/>
<stop offset="0.947917" stop-color="white" stop-opacity="0"/>
</linearGradient>
</defs>
</svg>
