<svg width="37" height="38" viewBox="0 0 37 38" fill="none" xmlns="http://www.w3.org/2000/svg">
<path d="M18.5938 8.88684C13.2142 8.88684 8.83789 13.3345 8.83789 18.8021C8.83789 24.2696 13.2142 28.7172 18.5938 28.7172C23.9735 28.7172 28.3496 24.2696 28.3496 18.8021C28.3496 13.3345 23.9736 8.88684 18.5938 8.88684ZM22.3359 20.2233L23.2188 25.4585L18.5938 22.9861L13.9689 25.4585L14.8518 20.2233L11.1107 16.5158L16.2808 15.752L18.5938 10.9891L20.9068 15.752L26.0769 16.5158L22.3359 20.2233Z" fill="#003BFF"/>
<path d="M18.5938 8.88684C13.2142 8.88684 8.83789 13.3345 8.83789 18.8021C8.83789 24.2696 13.2142 28.7172 18.5938 28.7172C23.9735 28.7172 28.3496 24.2696 28.3496 18.8021C28.3496 13.3345 23.9736 8.88684 18.5938 8.88684ZM22.3359 20.2233L23.2188 25.4585L18.5938 22.9861L13.9689 25.4585L14.8518 20.2233L11.1107 16.5158L16.2808 15.752L18.5938 10.9891L20.9068 15.752L26.0769 16.5158L22.3359 20.2233Z" fill="url(#paint0_linear)"/>
<path d="M19.4674 17.766L18.5941 15.9671L17.7208 17.766L15.7688 18.0543L17.1809 19.4552L16.8485 21.4304L18.5941 20.4965L20.3398 21.4304L20.0074 19.4552L21.4195 18.0543L19.4674 17.766Z" fill="#003BFF"/>
<path d="M19.4674 17.766L18.5941 15.9671L17.7208 17.766L15.7688 18.0543L17.1809 19.4552L16.8485 21.4304L18.5941 20.4965L20.3398 21.4304L20.0074 19.4552L21.4195 18.0543L19.4674 17.766Z" fill="url(#paint1_linear)"/>
<path d="M37 18.9872L34.3625 14.6934L34.751 9.50667L30.1367 7.25592L27.9221 2.5673L22.8187 2.96214L18.594 0L14.3692 2.96214L9.2657 2.5673L7.0512 7.25592L2.4369 9.50667L2.8254 14.6934L0 18.9872L2.8254 23.2821L2.4369 28.4677L7.0512 30.7195L9.2658 35.4081L14.3693 35.0133L18.594 37.6042L22.8188 35.0133L27.9221 35.4081L30.1368 30.7195L34.7511 28.4677L34.3626 23.2821L37 18.9872ZM18.594 30.9207C12.0191 30.9207 6.6701 25.4843 6.6701 18.8021C6.6701 12.12 12.0191 6.68357 18.594 6.68357C25.1688 6.68357 30.5178 12.12 30.5178 18.8021C30.5178 25.4843 25.1688 30.9207 18.594 30.9207Z" fill="#003BFF"/>
<path d="M37 18.9872L34.3625 14.6934L34.751 9.50667L30.1367 7.25592L27.9221 2.5673L22.8187 2.96214L18.594 0L14.3692 2.96214L9.2657 2.5673L7.0512 7.25592L2.4369 9.50667L2.8254 14.6934L0 18.9872L2.8254 23.2821L2.4369 28.4677L7.0512 30.7195L9.2658 35.4081L14.3693 35.0133L18.594 37.6042L22.8188 35.0133L27.9221 35.4081L30.1368 30.7195L34.7511 28.4677L34.3626 23.2821L37 18.9872ZM18.594 30.9207C12.0191 30.9207 6.6701 25.4843 6.6701 18.8021C6.6701 12.12 12.0191 6.68357 18.594 6.68357C25.1688 6.68357 30.5178 12.12 30.5178 18.8021C30.5178 25.4843 25.1688 30.9207 18.594 30.9207Z" fill="url(#paint2_linear)"/>
<defs>
<linearGradient id="paint0_linear" x1="18.5938" y1="8.88684" x2="18.5938" y2="28.7172" gradientUnits="userSpaceOnUse">
<stop stop-color="#BCC3CC"/>
<stop offset="0.947917" stop-color="white" stop-opacity="0"/>
</linearGradient>
<linearGradient id="paint1_linear" x1="18.5941" y1="15.9671" x2="18.5941" y2="21.4304" gradientUnits="userSpaceOnUse">
<stop stop-color="#BCC3CC"/>
<stop offset="0.947917" stop-color="white" stop-opacity="0"/>
</linearGradient>
<linearGradient id="paint2_linear" x1="18.5" y1="0" x2="18.5" y2="37.6042" gradientUnits="userSpaceOnUse">
<stop stop-color="#220E75"/>
<stop offset="0.947917" stop-color="white" stop-opacity="0"/>
</linearGradient>
</defs>
</svg>
