<svg width="18" height="13" viewBox="0 0 18 13" fill="none" xmlns="http://www.w3.org/2000/svg">
<path d="M8.90848 6.91602L2.83705 12.2285C2.41741 12.5957 1.73884 12.5957 1.32366 12.2285L0.314732 11.3457C-0.104911 10.9785 -0.104911 10.3848 0.314732 10.0215L4.6183 6.25586L0.314732 2.49023C-0.104911 2.12305 -0.104911 1.5293 0.314732 1.16602L1.3192 0.275391C1.73884 -0.0917969 2.41741 -0.0917969 2.83259 0.275391L8.90402 5.58789C9.32812 5.95508 9.32812 6.54883 8.90848 6.91602V6.91602ZM17.4799 5.58789L11.4085 0.275391C10.9888 -0.0917969 10.3103 -0.0917969 9.89509 0.275391L8.88616 1.1582C8.46652 1.52539 8.46652 2.11914 8.88616 2.48242L13.1897 6.24805L8.88616 10.0137C8.46652 10.3809 8.46652 10.9746 8.88616 11.3379L9.89509 12.2207C10.3147 12.5879 10.9933 12.5879 11.4085 12.2207L17.4799 6.9082C17.8996 6.54883 17.8996 5.95508 17.4799 5.58789Z" fill="#2400FF"/>
</svg>
