<svg width="46" height="37" viewBox="0 0 46 37" fill="none" xmlns="http://www.w3.org/2000/svg">
<path d="M40.9758 9.04123C41.0048 9.43801 41.0048 9.83487 41.0048 10.2316C41.0048 22.3338 31.5868 36.2784 14.3734 36.2784C9.0703 36.2784 4.14396 34.7762 0 32.1688C0.753472 32.2538 1.47787 32.2821 2.26033 32.2821C6.63603 32.2821 10.6641 30.8367 13.8808 28.3709C9.76579 28.2858 6.31732 25.65 5.12918 22.0221C5.7088 22.1071 6.28833 22.1638 6.89694 22.1638C7.7373 22.1638 8.57774 22.0504 9.36011 21.8521C5.07129 21.0017 1.85456 17.3173 1.85456 12.8675V12.7542C3.10059 13.4344 4.54965 13.8595 6.0854 13.9161C3.56425 12.2722 1.91254 9.46636 1.91254 6.29198C1.91254 4.59146 2.37611 3.03262 3.18756 1.67217C7.79519 7.2273 14.7211 10.8551 22.4873 11.2519C22.3425 10.5717 22.2555 9.86322 22.2555 9.15464C22.2555 4.10962 26.4284 0 31.6156 0C34.3106 0 36.7448 1.10536 38.4546 2.89094C40.5699 2.49416 42.5984 1.72887 44.3952 0.680225C43.6996 2.80596 42.2217 4.59154 40.2802 5.72516C42.1638 5.52686 43.9895 5.01658 45.6702 4.30809C44.3954 6.12194 42.8015 7.7374 40.9758 9.04123V9.04123Z" fill="#50B5FF"/>
</svg>
