<svg width="120" height="120" viewBox="0 0 120 120" fill="none" xmlns="http://www.w3.org/2000/svg">
<path d="M59.7928 29.9167C67.949 29.9167 74.5845 36.5522 74.5845 44.7113C74.5845 52.8645 67.949 59.503 59.7928 59.503C51.6367 59.503 45.0011 52.8645 45.0011 44.7113C45.0011 36.5522 51.6367 29.9167 59.7928 29.9167ZM59.7928 24C48.3559 24 39.0845 33.2714 39.0845 44.7113C39.0845 56.1453 48.3559 65.4196 59.7928 65.4196C71.2297 65.4196 80.5011 56.1453 80.5011 44.7113C80.5011 33.2714 71.2297 24 59.7928 24ZM78.6344 63.5026C77.1642 64.9759 75.5075 66.2568 73.7295 67.3544C82.2259 72.8983 86.6811 82.3916 88.4384 89.0863H31.0852C32.7773 82.3117 37.1734 72.8066 45.797 67.3189C44.0131 66.2125 42.3594 64.9197 40.892 63.4375C28.2955 72.5255 24.2928 88.6011 24.2928 95H95.7072C95.7072 88.6633 91.0328 72.6439 78.6344 63.5026Z" fill="#2D13CB"/>
<path fill-rule="evenodd" clip-rule="evenodd" d="M60 7.62939e-06C26.865 7.62939e-06 0 26.865 0 60C0 93.135 26.865 120 60 120C93.135 120 120 93.135 120 60C120 26.865 93.135 7.62939e-06 60 7.62939e-06ZM60 110C87.6142 110 110 87.6142 110 60C110 32.3858 87.6142 10 60 10C32.3858 10 10 32.3858 10 60C10 87.6142 32.3858 110 60 110Z" fill="#2D13CB"/>
</svg>
