<svg width="30" height="31" viewBox="0 0 30 31" fill="none" xmlns="http://www.w3.org/2000/svg">
<g clip-path="url(#clip0)">
<path d="M28.4615 5.16675H1.5385C0.692285 5.16675 0 5.88211 0 6.75647V24.2437C0 25.118 0.692285 25.8335 1.5385 25.8335H28.4616C29.3077 25.8335 30.0001 25.1181 30.0001 24.2437V6.75647C30 5.88211 29.3077 5.16675 28.4615 5.16675ZM27.8842 6.35898L15.885 15.6591C15.6693 15.8287 15.3381 15.9349 14.9999 15.9333C14.6619 15.9349 14.3307 15.8287 14.1149 15.6591L2.11576 6.35898H27.8842ZM21.4746 16.2727L28.0131 24.6189C28.0196 24.6273 28.0277 24.6337 28.0346 24.6412H1.96535C1.97227 24.6333 1.98035 24.6273 1.98691 24.6189L8.52539 16.2727C8.72572 16.0168 8.68775 15.6416 8.43961 15.4341C8.19193 15.2271 7.82883 15.2663 7.62844 15.5223L1.15383 23.787V7.10419L13.423 16.6128C13.8842 16.9678 14.4453 17.124 14.9999 17.1255C15.5537 17.1243 16.1153 16.9681 16.5768 16.6128L28.8459 7.10419V23.7869L22.3715 15.5223C22.1711 15.2664 21.8077 15.227 21.5603 15.4341C21.3122 15.6411 21.2742 16.0168 21.4746 16.2727Z" fill="#C0C0C0"/>
</g>
<defs>
<clipPath id="clip0">
<rect width="30" height="31" fill="white"/>
</clipPath>
</defs>
</svg>
