<svg width="97" height="91" viewBox="0 0 97 91" fill="none" xmlns="http://www.w3.org/2000/svg">
<path d="M96 45.5C96 70.3279 74.7591 90.5 48.5 90.5C22.2409 90.5 1 70.3279 1 45.5C1 20.672 22.2409 0.5 48.5 0.5C74.7591 0.5 96 20.672 96 45.5Z" stroke="#9C98A6"/>
<g clip-path="url(#clip0)">
<path d="M58.1598 31.1398H63.1808V24.3028C62.3146 24.2096 59.3354 24 55.8658 24C48.6264 24 43.6673 27.56 43.6673 34.1032V40.125H35.6785V47.7682H43.6673V67H53.4619V47.77H61.1275L62.3444 40.1268H53.4596V34.8611C53.4619 32.652 54.2227 31.1398 58.1598 31.1398Z" fill="#4E00FF"/>
</g>
<defs>
<clipPath id="clip0">
<rect width="55" height="43" fill="white" transform="translate(21.5 24)"/>
</clipPath>
</defs>
</svg>
