<svg width="32" height="32" viewBox="0 0 32 32" fill="none" xmlns="http://www.w3.org/2000/svg">
<g clip-path="url(#clip0)">
<path d="M29.232 2.69631C25.6368 -0.898769 19.7871 -0.898769 16.1919 2.69631C14.7012 4.18697 13.7879 6.07991 13.5507 8.1705C13.3488 9.94985 13.674 11.7632 14.4698 13.3526L0.071701 27.7508L4.17744 31.8566L5.84989 30.1841L7.66581 32L11.5627 28.1031L9.74678 26.2872L11.083 24.951L12.8989 26.7669L16.7958 22.8701L14.9799 21.0541L18.5756 17.4584C20.1651 18.2541 21.9784 18.5795 23.7577 18.3775C25.8483 18.1403 27.7413 17.227 29.2319 15.7363C32.8271 12.1412 32.8271 6.29145 29.232 2.69631ZM27.9059 14.4103C25.5024 16.8139 21.7984 17.2602 18.8986 15.4957L18.2691 15.1127L12.3277 21.0541L14.1436 22.8701L12.8989 24.1148L11.083 22.2989L7.09457 26.2872L8.91049 28.1031L7.66581 29.3479L5.84989 27.532L4.17744 29.2044L2.72391 27.7508L16.8156 13.6591L16.4326 13.0297C14.6681 10.1299 15.1145 6.42597 17.518 4.02238C20.3819 1.15851 25.0419 1.15851 27.9059 4.02238C30.7698 6.88638 30.7698 11.5463 27.9059 14.4103Z" fill="#C0C0C0"/>
<path d="M22.3213 5.26293C21.1237 6.46054 21.1237 8.40923 22.3213 9.60696C22.9202 10.2057 23.7067 10.5051 24.4933 10.5051C25.2799 10.5051 26.0665 10.2057 26.6653 9.6069H26.6653C27.8629 8.40923 27.8629 6.46054 26.6653 5.26293C25.4677 4.06532 23.5189 4.06538 22.3213 5.26293ZM25.3393 8.28083C24.8727 8.74736 24.1138 8.74723 23.6475 8.28083C23.181 7.81436 23.181 7.0554 23.6474 6.58906C23.8807 6.35583 24.187 6.23918 24.4934 6.23918C24.7997 6.23918 25.1061 6.35577 25.3393 6.589C25.8056 7.05547 25.8056 7.81436 25.3393 8.28083Z" fill="#C0C0C0"/>
</g>
<defs>
<clipPath id="clip0">
<rect width="32" height="32" fill="white"/>
</clipPath>
</defs>
</svg>
